<svg width="31" height="31" viewBox="0 0 31 31" fill="none" xmlns="http://www.w3.org/2000/svg">
<g clip-path="url(#clip0_90_1535)">
<path d="M21.1054 13.8496C21.1927 13.9367 21.2619 14.0402 21.3092 14.1541C21.3565 14.268 21.3808 14.3901 21.3808 14.5134C21.3808 14.6367 21.3565 14.7588 21.3092 14.8727C21.2619 14.9866 21.1927 15.0901 21.1054 15.1771L15.4804 20.8021C15.3933 20.8895 15.2898 20.9587 15.1759 21.006C15.062 21.0532 14.9399 21.0776 14.8166 21.0776C14.6933 21.0776 14.5712 21.0532 14.4573 21.006C14.3434 20.9587 14.2399 20.8895 14.1529 20.8021L11.3404 17.9896C11.2532 17.9025 11.1841 17.799 11.1369 17.6851C11.0897 17.5712 11.0654 17.4492 11.0654 17.3259C11.0654 17.2026 11.0897 17.0806 11.1369 16.9667C11.1841 16.8528 11.2532 16.7493 11.3404 16.6621C11.5164 16.4861 11.7552 16.3872 12.0041 16.3872C12.1274 16.3872 12.2494 16.4115 12.3633 16.4587C12.4772 16.5058 12.5807 16.575 12.6679 16.6621L14.8166 18.8128L19.7779 13.8496C19.865 13.7623 19.9684 13.6931 20.0823 13.6458C20.1962 13.5985 20.3183 13.5742 20.4416 13.5742C20.5649 13.5742 20.687 13.5985 20.8009 13.6458C20.9148 13.6931 21.0183 13.7623 21.1054 13.8496Z" fill="#E63946"/>
<path d="M7.31641 0.449219C7.56505 0.449219 7.8035 0.547991 7.97932 0.723806C8.15513 0.899622 8.25391 1.13808 8.25391 1.38672V2.32422H23.2539V1.38672C23.2539 1.13808 23.3527 0.899622 23.5285 0.723806C23.7043 0.547991 23.9428 0.449219 24.1914 0.449219C24.44 0.449219 24.6785 0.547991 24.8543 0.723806C25.0301 0.899622 25.1289 1.13808 25.1289 1.38672V2.32422H27.0039C27.9985 2.32422 28.9523 2.71931 29.6556 3.42257C30.3588 4.12583 30.7539 5.07966 30.7539 6.07422V26.6992C30.7539 27.6938 30.3588 28.6476 29.6556 29.3509C28.9523 30.0541 27.9985 30.4492 27.0039 30.4492H4.50391C3.50934 30.4492 2.55552 30.0541 1.85226 29.3509C1.14899 28.6476 0.753906 27.6938 0.753906 26.6992V6.07422C0.753906 5.07966 1.14899 4.12583 1.85226 3.42257C2.55552 2.71931 3.50934 2.32422 4.50391 2.32422H6.37891V1.38672C6.37891 1.13808 6.47768 0.899622 6.65349 0.723806C6.82931 0.547991 7.06777 0.449219 7.31641 0.449219V0.449219ZM2.62891 7.94922V26.6992C2.62891 27.1965 2.82645 27.6734 3.17808 28.025C3.52971 28.3767 4.00663 28.5742 4.50391 28.5742H27.0039C27.5012 28.5742 27.9781 28.3767 28.3297 28.025C28.6814 27.6734 28.8789 27.1965 28.8789 26.6992V7.94922H2.62891Z" fill="#E63946"/>
</g>
<defs>
<clipPath id="clip0_90_1535">
<rect width="30" height="30" fill="white" transform="translate(0.753906 0.449219)"/>
</clipPath>
</defs>
</svg>
