<svg width="524" height="395" viewBox="0 0 524 395" fill="none" xmlns="http://www.w3.org/2000/svg">
<path d="M423.449 117.627C416.269 119.15 413.837 127.376 412.194 133.503C411.194 137.273 410.471 141.111 410.032 144.987C409.596 148.767 409.537 152.56 409.337 156.353C409.119 160.498 408.642 164.661 407.016 168.518C406.94 168.805 407.062 169.107 407.317 169.259C407.979 169.727 408.877 169.673 409.478 169.13C410.109 168.542 410.067 167.595 409.107 167.366C408.147 167.137 407.175 168.042 406.451 168.542C405.414 169.263 404.392 170.008 403.382 170.776C399.754 173.534 396.315 176.556 392.781 179.426C390.543 181.231 388.246 182.954 385.866 184.565C385.153 185.047 385.831 186.211 386.543 185.741C390.421 183.04 394.156 180.141 397.734 177.056C399.454 175.61 401.18 174.163 402.947 172.781C403.936 171.997 404.943 171.237 405.968 170.5C406.498 170.118 407.028 169.741 407.57 169.371C407.806 169.206 408.035 169.03 408.283 168.883C408.53 168.736 408.795 168.724 408.695 168.583V167.919C408.658 168.072 408.54 168.192 408.388 168.232C408.235 168.273 408.073 168.227 407.965 168.113L408.265 168.853C411.063 162.191 410.462 154.818 411.021 147.774C411.317 143.997 411.881 140.245 412.712 136.549C413.427 132.946 414.492 129.42 415.892 126.024C417.406 122.613 419.886 119.391 423.632 118.333C423.833 118.277 423.952 118.069 423.897 117.868C423.841 117.667 423.633 117.548 423.431 117.603L423.449 117.627Z" fill="#6D7DB6"/>
<path d="M456.42 236.694C461.083 249.196 467.147 261.132 474.496 272.274C480.633 281.582 489.22 291.126 500.375 291.237C508.262 291.32 515.318 286.58 521.484 281.676C538.425 268.194 553.086 252.084 564.91 233.96C568.008 229.197 571.654 223.806 577.279 223.088C578.076 223.067 578.862 222.893 579.593 222.577C581.949 221.224 580.306 217.626 578.415 215.709C575.851 213.119 573.118 210.701 570.234 208.47C568.956 207.483 567.578 206.501 565.976 206.289C562.154 205.772 559.338 209.558 556.959 212.586C544.549 228.398 522.515 232.908 507.001 245.697C504.646 228.645 496.311 213.104 488.154 197.957L472.393 213.545C470.473 215.45 465.779 218.12 467.287 220.366C469.76 224.052 467.911 227.034 466.963 230.256C466.014 233.478 464.483 237.588 461.032 237.488" fill="#003566"/>
<path d="M456.031 236.804C459.613 246.619 464.084 256.088 469.389 265.093C474.001 272.948 479.102 281.086 486.47 286.672C489.753 289.286 493.656 291.009 497.802 291.676C502.402 292.311 506.949 291.241 511.101 289.265C515.518 287.16 519.429 284.15 523.216 281.092C527.003 278.034 530.802 274.718 534.407 271.331C541.664 264.507 548.407 257.156 554.579 249.34C557.638 245.483 560.55 241.52 563.314 237.451C565.77 233.829 567.955 229.842 571.195 226.831C572.649 225.404 574.449 224.377 576.419 223.85C578.239 223.415 580.589 223.639 581.248 221.428C581.749 219.74 580.836 217.835 579.876 216.494C578.498 214.572 576.537 212.966 574.776 211.414C572.942 209.677 570.959 208.103 568.85 206.71C567.12 205.552 564.933 205.308 562.99 206.057C561.082 206.839 559.592 208.362 558.278 209.909C556.965 211.455 555.693 213.202 554.261 214.742C548.554 220.91 541.245 225.238 533.883 229.125C526.332 233.117 518.534 236.71 511.46 241.526C509.764 242.702 508.121 243.878 506.536 245.212L507.62 245.5C505.729 232.135 500.228 219.628 494.074 207.745C492.307 204.346 490.504 200.971 488.69 197.602C488.586 197.43 488.409 197.316 488.209 197.29C488.01 197.265 487.809 197.332 487.665 197.473L478.324 206.698C475.627 209.368 473.023 212.226 470.078 214.613C468.529 215.853 465.367 218.053 466.545 220.428C466.968 221.118 467.325 221.847 467.611 222.604C467.851 223.477 467.895 224.393 467.74 225.285C467.487 226.855 466.821 228.331 466.356 229.848C465.561 232.453 464.43 236.851 460.991 236.816C460.658 236.847 460.404 237.126 460.404 237.46C460.404 237.793 460.658 238.072 460.991 238.103C464.012 238.103 465.702 235.487 466.674 232.982C467.263 231.53 467.652 230.007 468.164 228.531C468.677 227.055 469.224 225.397 469.118 223.756C469.073 222.947 468.887 222.151 468.571 221.404C468.346 220.919 468.092 220.448 467.811 219.993C467.678 219.799 467.608 219.569 467.611 219.334C467.652 218.194 469.03 217.159 469.813 216.489C470.88 215.571 472.022 214.725 473.023 213.76C474.62 212.19 476.204 210.614 477.794 209.056L488.584 198.396L487.559 198.261C493.903 210.021 500.311 221.933 503.992 234.852C505.03 238.456 505.817 242.128 506.348 245.841C506.424 246.377 507.108 246.4 507.437 246.13C513.822 240.885 521.226 237.08 528.547 233.335C535.868 229.589 543.1 225.926 549.491 220.851C552.623 218.353 555.45 215.496 557.913 212.337C559.173 210.726 560.493 209.015 562.213 207.868C563.92 206.635 566.204 206.551 567.996 207.657C570.129 208.886 572.043 210.65 573.886 212.273C574.848 213.111 575.785 213.976 576.696 214.866C577.513 215.588 578.255 216.392 578.91 217.265C579.694 218.405 580.989 220.851 579.434 221.928C578.563 222.516 577.291 222.392 576.283 222.61C575.36 222.814 574.467 223.138 573.627 223.574C570.093 225.373 567.596 228.778 565.434 232C562.813 235.91 560.222 239.826 557.418 243.607C551.668 251.347 545.37 258.665 538.571 265.504C535.202 268.895 531.715 272.164 528.111 275.312C524.541 278.503 520.806 281.504 516.92 284.303C513.086 286.996 508.869 289.365 504.216 290.259C500.012 291.028 495.673 290.437 491.83 288.571C484.026 284.832 478.53 277.494 473.948 270.414C468.419 261.884 463.638 252.894 459.659 243.542C458.682 241.237 457.722 238.927 456.826 236.586C456.644 236.11 455.872 236.31 456.049 236.804H456.031Z" fill="#003566"/>
<path d="M443.98 190.099C440.064 190.517 436.041 190.723 432.201 189.864C428.844 195.915 423.619 200.866 418.43 205.534C399.76 222.333 379.299 238.786 369.38 261.841C365.705 270.373 363.644 279.481 361.6 288.548C357.259 307.799 356.169 334.036 351.829 353.287C350.02 361.284 345.438 364.577 339.419 369.163C338.631 369.757 338.275 370.764 338.517 371.72C338.759 372.676 339.55 373.394 340.526 373.544C341.347 373.639 342.174 373.676 343 373.655L355.651 373.491C359.627 373.444 366.93 373.549 370.8 373.614C372.63 373.657 374.209 372.339 374.493 370.533C375.164 365.947 373.662 358.973 374.092 355.427C375.27 345.602 380.759 336.905 385.601 328.268C395.511 310.6 403.293 291.824 408.783 272.331C409.219 270.773 409.661 269.174 410.632 267.886C411.704 266.463 413.306 265.534 414.861 264.699L444.522 248.235C446.171 247.318 447.868 246.365 448.987 244.854C450.106 243.343 450.53 241.455 450.93 239.621C452.232 233.588 453.41 226.761 449.517 221.781C448.767 220.858 448.204 219.797 447.862 218.658C447.426 217.053 447.473 216.712 448.233 215.183C448.745 214.154 454.712 209.844 455.242 208.827C456.001 207.375 451.932 208.504 453.746 204.458C456.102 199.237 461.479 198.372 466.762 187.577C467.084 186.822 467.231 186.003 467.192 185.184C459.642 187.604 451.865 189.251 443.98 190.099Z" fill="#003566"/>
<path d="M345.491 120.32C345.493 113.756 344.684 107.217 343.083 100.851L363.214 84.4577L345.544 53.8817L321.225 63.0956C311.756 53.9161 300.151 47.2283 287.453 43.6328L283.331 18.0195H247.992L243.828 43.6328C231.141 47.2355 219.548 53.9227 210.085 63.0956L185.772 53.8817L168.102 84.4577L188.228 100.851C185.015 113.63 185.015 127.004 188.228 139.783L168.102 156.182L185.772 186.758L210.085 177.538C219.535 186.707 231.114 193.396 243.786 197.007L247.95 222.626H283.289L287.453 197.007C300.141 193.407 311.735 186.719 321.196 177.544L345.515 186.764L363.184 156.188L343.053 139.788C344.665 133.424 345.484 126.885 345.491 120.32Z" fill="#003566"/>
<path d="M346.593 120.322C346.577 113.666 345.757 107.036 344.148 100.577L343.866 101.647L361.5 87.2819L363.991 85.2533C364.344 84.8987 364.416 84.3525 364.168 83.9185L358.196 73.5991L348.678 57.1352L346.487 53.3426C346.23 52.9147 345.721 52.7083 345.238 52.8369L323.935 60.916L320.919 62.0567L321.997 62.339C312.377 53.0599 300.622 46.2799 287.765 42.5939L288.537 43.3583L284.891 20.9144L284.379 17.745C284.245 17.2673 283.81 16.9362 283.313 16.9336H247.974C247.478 16.9382 247.044 17.2685 246.908 17.745L243.262 40.189L242.75 43.3583L243.521 42.5939C230.663 46.2774 218.908 53.0577 209.29 62.339L210.362 62.0567L189.035 53.96L186.025 52.8192C185.542 52.6865 185.03 52.8938 184.776 53.3249L178.81 63.6502L169.286 80.1142L167.095 83.9009C166.847 84.334 166.917 84.8787 167.266 85.2357L184.906 99.6005L187.397 101.629L187.115 100.559C183.887 113.535 183.887 127.102 187.115 140.078L187.397 139.008L169.757 153.373L167.266 155.402C166.915 155.758 166.845 156.304 167.095 156.736L173.067 167.062L182.585 183.526L184.776 187.312C185.032 187.742 185.542 187.949 186.025 187.818L207.352 179.745L210.362 178.604L209.29 178.322C218.91 187.601 230.664 194.381 243.521 198.067L242.75 197.297L246.395 219.741L246.908 222.916C247.044 223.391 247.479 223.72 247.974 223.721H283.313C283.807 223.718 284.241 223.39 284.379 222.916L288.042 200.466L288.561 197.297L287.789 198.067C300.646 194.381 312.4 187.601 322.02 178.322L320.943 178.604L342.228 186.677L345.238 187.818C345.721 187.949 346.232 187.742 346.487 187.312L352.453 177.017L361.977 160.553L364.168 156.76C364.416 156.326 364.344 155.78 363.991 155.425L346.351 141.037L343.86 139.008L344.143 140.078C345.752 133.615 346.573 126.982 346.587 120.322C346.587 119.714 346.094 119.222 345.485 119.222C344.877 119.222 344.384 119.714 344.384 120.322C344.373 126.784 343.582 133.222 342.028 139.496C341.92 139.878 342.028 140.288 342.311 140.566L359.98 154.931L362.472 156.96L362.301 155.625L356.329 165.95L346.811 182.414L344.584 186.201L345.833 185.695L324.518 177.605L321.508 176.464C321.126 176.355 320.715 176.463 320.436 176.746C311.091 185.76 299.672 192.346 287.182 195.927C286.804 196.025 286.509 196.32 286.411 196.697L282.741 219.159L282.229 222.328L283.289 221.522H247.95L249.011 222.328L245.365 199.884L244.852 196.715C244.754 196.337 244.459 196.043 244.081 195.944C231.591 192.364 220.172 185.778 210.827 176.764C210.549 176.481 210.137 176.372 209.755 176.482L188.446 184.555L185.436 185.695L186.679 186.201L180.712 175.882L171.189 159.418L168.998 155.625L168.827 156.96L186.496 142.595L188.988 140.566C189.27 140.288 189.378 139.878 189.27 139.496C186.137 126.905 186.137 113.739 189.27 101.147C189.378 100.765 189.27 100.355 188.988 100.077L171.348 85.712L168.856 83.6775L169.027 85.0122L174.958 74.7046L184.476 58.2406L186.667 54.448L185.424 54.9537L206.763 63.021L209.773 64.1618C210.155 64.2671 210.564 64.1593 210.845 63.8795C220.186 54.8729 231.598 48.2927 244.081 44.7166C244.458 44.6205 244.753 44.3279 244.852 43.9522L248.498 21.5082L249.011 18.333L247.95 19.1445H283.289L282.229 18.333L285.869 40.777L286.387 43.9522C286.486 44.3279 286.782 44.6205 287.159 44.7166C299.656 48.2866 311.083 54.8671 320.436 63.8795C320.716 64.1605 321.126 64.2684 321.508 64.1618L342.817 56.0826L345.827 54.9419L344.578 54.4362L350.551 64.7615L360.069 81.2255L362.265 85.0181L362.436 83.6833L344.796 98.0482L342.305 100.077C342.022 100.355 341.914 100.765 342.022 101.147C343.576 107.421 344.367 113.859 344.378 120.322C344.396 121.745 346.599 121.745 346.593 120.322Z" fill="#003566"/>
<ellipse cx="265.631" cy="120.323" rx="29.2193" ry="29.1707" fill="white"/>
<path d="M293.744 120.323C293.689 135.333 281.769 147.621 266.743 148.157C251.717 148.693 238.949 137.285 237.822 122.316C236.695 107.348 247.611 94.163 262.549 92.4502C277.486 90.7373 291.112 101.108 293.414 115.942C293.636 117.392 293.746 118.856 293.744 120.323C293.786 120.9 294.268 121.347 294.848 121.347C295.428 121.347 295.91 120.9 295.952 120.323C295.972 104.044 283.111 90.6555 266.818 89.9942C250.526 89.3329 236.618 101.635 235.314 117.861C234.01 134.088 245.774 148.447 261.964 150.387C278.153 152.328 292.988 141.159 295.57 125.085C295.815 123.509 295.943 121.917 295.952 120.323C295.91 119.745 295.428 119.298 294.848 119.298C294.268 119.298 293.786 119.745 293.744 120.323Z" fill="#003566"/>
<path d="M130.59 100.578C127.407 97.4105 123.847 94.6458 119.989 92.3456L121.756 74.7056L98.4497 68.4258L91.164 84.6134C82.151 84.7454 73.3115 87.1071 65.4373 91.4871L51.0309 81.1148L33.9505 98.1668L44.3401 112.549C39.9534 120.411 37.5878 129.235 37.4549 138.233L21.2344 145.518L27.4893 168.821L45.1587 167.057C49.7935 174.783 56.2676 181.246 64.0061 185.873L62.2392 203.513L85.5804 209.757L92.872 193.576C101.885 193.444 110.724 191.082 118.599 186.702L133.005 197.074L150.086 180.022L139.702 165.64C144.088 157.779 146.452 148.954 146.581 139.956L162.796 132.682L156.541 109.38L138.871 111.144C136.556 107.296 133.775 103.747 130.59 100.578Z" fill="#E63946"/>
<path d="M131.374 99.7722C128.124 96.5431 124.495 93.7179 120.566 91.3579L121.114 92.3046L122.68 76.8755L122.904 74.6705C122.901 74.1759 122.569 73.7436 122.091 73.6121L101.612 68.1319L98.7499 67.3675C98.2688 67.2356 97.7589 67.443 97.5072 67.8732L91.1109 82.0557L90.2097 84.0549L91.1639 83.514C81.9604 83.6724 72.9364 86.0831 64.8836 90.5347H65.9968L53.3867 81.4619L51.5844 80.1624C51.151 79.9128 50.6041 79.9825 50.2474 80.3329L35.252 95.2857L33.1611 97.379C32.8102 97.7351 32.7403 98.2811 32.9903 98.7138L42.0783 111.297L43.3799 113.096V111.985C38.9095 120.022 36.4826 129.03 36.3122 138.221L36.8599 137.275L22.6832 143.666L20.6806 144.566C20.2505 144.821 20.0433 145.331 20.1741 145.813L25.6575 166.257L26.4232 169.115C26.5595 169.59 26.994 169.919 27.4892 169.921L42.9441 168.356L45.1528 168.133L44.2045 167.61C48.9564 175.481 55.5617 182.076 63.4465 186.82L62.8928 185.838L61.3261 201.273L61.1023 203.478C61.1042 203.972 61.4331 204.406 61.9092 204.542L82.394 210.022L85.2564 210.787C85.737 210.91 86.242 210.705 86.4992 210.281L92.8896 196.098L93.7907 194.093L92.8366 194.64C102.041 194.474 111.065 192.057 119.117 187.602H118.004L130.614 196.675L132.416 197.968C132.847 198.221 133.394 198.151 133.747 197.798L148.743 182.827L150.839 180.74C151.19 180.384 151.26 179.838 151.01 179.405L141.922 166.816L140.621 165.023V166.134C145.082 158.093 147.496 149.082 147.653 139.891L147.111 140.844L161.317 134.47L163.32 133.565C163.751 133.313 163.959 132.804 163.826 132.324L158.337 111.873L157.571 109.021C157.44 108.545 157.007 108.213 156.511 108.21L141.056 109.78L138.848 110.003L139.802 110.544C137.435 106.63 134.605 103.013 131.374 99.7722C130.372 98.7667 128.811 100.325 129.813 101.33C132.919 104.438 135.634 107.911 137.899 111.673C138.098 112.012 138.461 112.22 138.854 112.22L154.308 110.656L156.517 110.433L155.451 109.621L160.94 130.072L161.706 132.929L162.213 131.683L148.006 138.063L146.004 138.962C145.663 139.156 145.454 139.518 145.456 139.909C145.305 148.71 142.994 157.339 138.724 165.04C138.521 165.383 138.521 165.809 138.724 166.151L147.812 178.735L149.114 180.534L149.284 179.199L134.289 194.17L132.198 196.257L133.529 196.087L120.919 187.014L119.117 185.714C118.773 185.515 118.348 185.515 118.004 185.714C110.292 189.978 101.65 192.287 92.8366 192.441C92.4442 192.437 92.0797 192.643 91.8824 192.982L85.4979 207.165L84.5967 209.17L85.8395 208.664L65.3548 203.184L62.4982 202.419L63.3051 203.478L64.8718 188.049L65.0956 185.844C65.1016 185.453 64.8939 185.09 64.5538 184.897C56.9914 180.349 50.6568 174.025 46.101 166.475C45.9075 166.135 45.5441 165.928 45.1528 165.934L29.6979 167.498L27.4892 167.721L28.5494 168.527L23.066 148.076L22.2944 145.225L21.7879 146.442L35.9941 140.091L38.0025 139.192C38.3432 138.995 38.5522 138.632 38.5503 138.239C38.6992 129.44 41.011 120.812 45.2823 113.114C45.4849 112.771 45.4849 112.345 45.2823 112.003L36.1885 99.4017L34.8927 97.6377L34.7219 98.9725L49.7174 84.002L51.8082 81.9087L50.4712 82.0793L63.0813 91.1697L64.8836 92.4633C65.2267 92.6668 65.6537 92.6668 65.9968 92.4633C73.7089 88.2018 82.3505 85.8941 91.1639 85.7425C91.5561 85.746 91.9193 85.5366 92.1121 85.1957L98.5026 71.0131L99.4037 69.0139L98.161 69.5196L118.64 74.9997L121.502 75.7641L120.695 74.6999L119.123 90.1349L118.899 92.334C118.898 92.7263 119.107 93.0893 119.447 93.2865C123.214 95.55 126.693 98.2608 129.807 101.36C130.814 102.342 132.375 100.772 131.374 99.7722Z" fill="#E63946"/>
<ellipse cx="92.0001" cy="139.074" rx="19.9664" ry="19.9332" fill="#003566"/>
<path d="M105.335 125.762C112.442 132.911 112.622 144.388 105.744 151.756C98.8657 159.124 87.3854 159.751 79.7427 153.176C72.1 146.602 71.0251 135.174 77.3083 127.293C83.5914 119.413 94.988 117.896 103.12 123.857C103.908 124.433 104.648 125.07 105.335 125.762C106.348 126.756 107.908 125.203 106.895 124.204C98.8929 116.221 86.0027 115.975 77.7005 123.647C69.3984 131.319 68.6501 144.168 76.0058 152.749C83.3615 161.33 96.1935 162.577 105.069 155.574C113.944 148.57 115.692 135.818 109.027 126.691C108.376 125.813 107.664 124.982 106.895 124.204C105.894 123.198 104.339 124.751 105.335 125.762Z" fill="#003566"/>
<path d="M182.733 209.356C179.587 209.355 176.454 209.74 173.403 210.503L165.534 200.871L150.892 209.315L155.304 220.922C150.912 225.439 147.709 230.973 145.98 237.027L133.729 239.015V255.896L145.998 257.884C147.726 263.938 150.929 269.471 155.321 273.989L150.91 285.602L165.534 294.028L173.386 284.42C179.509 285.949 185.915 285.949 192.039 284.42L199.907 294.028L214.555 285.59L210.138 273.977C214.53 269.46 217.733 263.926 219.461 257.872L231.73 255.884V239.015L219.461 237.027C217.733 230.973 214.53 225.439 210.138 220.922L214.555 209.315L199.907 200.871L192.039 210.479C188.994 209.726 185.869 209.349 182.733 209.356Z" fill="white"/>
<path d="M182.733 208.235C179.491 208.243 176.262 208.638 173.115 209.411L174.186 209.693L166.33 200.085C165.977 199.732 165.431 199.66 164.998 199.909L152.159 207.312L150.35 208.353C149.921 208.605 149.714 209.113 149.844 209.593L154.261 221.206L154.544 220.13C150.025 224.799 146.72 230.502 144.92 236.741L145.692 235.971L133.417 237.959C132.941 238.09 132.611 238.523 132.61 239.017V255.898C132.606 256.406 132.945 256.853 133.435 256.986L145.709 258.968L144.92 258.162C146.719 264.393 150.017 270.089 154.526 274.756L154.244 273.685L149.826 285.293C149.694 285.773 149.902 286.282 150.333 286.533L163.178 293.948L164.993 294.995C165.425 295.241 165.968 295.171 166.324 294.824L174.186 285.21L173.115 285.492C179.429 287.052 186.03 287.052 192.345 285.492L191.273 285.21L199.106 294.824C199.462 295.171 200.005 295.241 200.437 294.995L213.277 287.597L215.085 286.551C215.515 286.298 215.722 285.79 215.592 285.31L211.174 273.703L210.892 274.773C215.413 270.105 218.719 264.401 220.522 258.162L219.756 258.927L232.024 256.986C232.502 256.852 232.831 256.417 232.831 255.922V239.017C232.831 238.523 232.501 238.09 232.024 237.959L219.756 235.971L220.522 236.741C218.725 230.508 215.427 224.809 210.915 220.142L211.198 221.218L215.615 209.605C215.745 209.125 215.538 208.617 215.109 208.364L202.275 200.967L200.461 199.95C200.028 199.703 199.483 199.775 199.13 200.127L191.273 209.705L192.345 209.423C189.199 208.65 185.972 208.255 182.733 208.247C182.124 208.247 181.631 208.739 181.631 209.346C181.631 209.954 182.124 210.446 182.733 210.446C185.776 210.454 188.808 210.827 191.762 211.557C192.144 211.665 192.555 211.557 192.834 211.275L200.685 201.661L199.354 201.838L212.187 209.235L213.996 210.275L213.489 209.035L209.072 220.642C208.964 221.024 209.075 221.435 209.36 221.712C213.602 226.107 216.704 231.47 218.395 237.335C218.496 237.711 218.79 238.005 219.167 238.106L231.435 240.087L230.628 239.029V255.91L231.435 254.852L219.167 256.833C218.792 256.937 218.499 257.229 218.395 257.604C216.704 263.469 213.602 268.832 209.36 273.227C209.075 273.503 208.964 273.914 209.072 274.297L213.489 285.904L213.996 284.663L201.162 292.06L199.354 293.107L200.685 293.278L192.834 283.67C192.555 283.387 192.145 283.276 191.762 283.382C185.83 284.846 179.63 284.846 173.698 283.382C173.314 283.276 172.904 283.387 172.626 283.67L164.775 293.266L166.112 293.095L153.272 285.692L151.464 284.652L151.97 285.892L156.388 274.285C156.494 273.904 156.386 273.494 156.105 273.215C151.857 268.817 148.753 263.447 147.064 257.574C146.96 257.2 146.667 256.908 146.292 256.804L134.024 254.822L134.831 255.881V239.017L134.024 240.075L146.292 238.094C146.669 237.993 146.963 237.7 147.064 237.323C148.758 231.459 151.864 226.097 156.111 221.706C156.392 221.427 156.5 221.018 156.393 220.636L151.988 209.023L151.481 210.264L164.298 202.89L166.112 201.849L164.775 201.673L172.602 211.263C172.881 211.545 173.292 211.654 173.674 211.546C176.63 210.815 179.664 210.441 182.709 210.434C184.146 210.428 184.152 208.229 182.733 208.235Z" fill="#003566"/>
<ellipse cx="182.733" cy="247.459" rx="13.9706" ry="13.9474" fill="#F59D31"/>
<path d="M182.733 234.639C188.169 234.643 193.017 238.057 194.844 243.169C196.671 248.281 195.084 253.987 190.878 257.426C186.672 260.865 180.755 261.295 176.095 258.499C171.435 255.704 169.038 250.286 170.105 244.964C171.351 238.982 176.612 234.68 182.733 234.639C184.146 234.639 184.152 232.428 182.733 232.434C176.365 232.43 170.682 236.419 168.531 242.402C166.38 248.386 168.226 255.073 173.143 259.111C178.06 263.15 184.989 263.669 190.455 260.41C195.921 257.15 198.747 250.813 197.516 244.576C196.06 237.563 189.907 232.509 182.733 232.434C181.313 232.399 181.307 234.598 182.733 234.639Z" fill="#F59D31"/>
<path d="M409.719 80.9299C409.454 83.2421 408.985 85.5265 408.318 87.7565C408.004 88.8619 407.59 89.9365 407.081 90.967C406.574 91.9431 405.791 92.8427 406.032 94.0187C406.348 95.1011 407.155 95.9722 408.212 96.3707C408.801 96.6118 409.295 96.5942 409.295 97.3115C409.295 98.0289 409.236 98.8874 409.295 99.6635C409.377 101.068 409.62 102.459 410.02 103.809C410.397 105.056 410.862 106.42 411.787 107.337C414.143 109.636 417.677 108.419 420.568 108.754C421.381 108.854 421.375 107.578 420.568 107.484C418.142 107.196 414.808 108.337 412.776 106.502C411.804 105.626 411.41 104.15 411.092 102.927C410.729 101.584 410.531 100.202 410.503 98.8109C410.503 97.7996 410.862 96.3707 409.914 95.6534C408.966 94.936 407.652 95.0654 407.263 93.7953C407.087 93.2073 407.452 92.7016 407.735 92.2195C407.985 91.8026 408.209 91.3706 408.406 90.9259C408.827 89.9716 409.182 88.9893 409.466 87.9859C410.178 85.664 410.574 83.2571 410.644 80.8299C410.644 80.1949 409.749 80.2419 409.678 80.8299L409.719 80.9299Z" fill="#6D7DB6"/>
<path d="M414.114 88.5152C414.114 88.5152 414.114 88.5152 414.143 88.5446L414.037 88.1389C413.994 88.2898 414.037 88.4522 414.149 88.5623L414.184 88.6034L414.114 88.5152C414.134 88.543 414.152 88.5725 414.167 88.6034L414.12 88.4917C414.134 88.538 414.146 88.5851 414.155 88.6328V88.5035V88.5975V88.4682C414.157 88.4975 414.157 88.527 414.155 88.5564L414.208 88.4388C414.195 88.4706 414.177 88.5003 414.155 88.527L414.237 88.4211L414.161 88.4976L414.267 88.4153C414.242 88.4395 414.212 88.4576 414.178 88.4682L414.308 88.4153H414.22H414.361L414.826 88.6799C414.806 88.633 414.783 88.5878 414.756 88.5446C414.704 88.4682 414.647 88.3955 414.585 88.3271L414.479 88.2447C414.419 88.2067 414.35 88.1845 414.279 88.1801C414.232 88.1684 414.184 88.1684 414.137 88.1801C414.068 88.1836 414.001 88.2059 413.943 88.2447C413.866 88.2923 413.802 88.3566 413.754 88.4329C413.715 88.4905 413.693 88.5576 413.69 88.6269C413.672 88.6964 413.672 88.7692 413.69 88.8386L413.719 88.9092C413.741 88.9733 413.766 89.0361 413.796 89.0973C413.796 89.1385 413.854 89.1797 413.884 89.2208L413.972 89.3267C414.017 89.3796 414.076 89.4184 414.143 89.4384C414.184 89.4633 414.231 89.4775 414.279 89.4795C414.348 89.4972 414.421 89.4972 414.491 89.4795C414.553 89.4592 414.615 89.4336 414.673 89.4031C414.742 89.3605 414.806 89.3091 414.862 89.2502C414.916 89.1889 414.963 89.1219 415.003 89.0503C415.03 88.9955 415.051 88.9384 415.068 88.8798C415.073 88.8191 415.073 88.7581 415.068 88.6975C415.079 88.6156 415.079 88.5324 415.068 88.4505C415.053 88.3728 415.023 88.2988 414.979 88.233C414.9 88.0975 414.783 87.9874 414.644 87.9155L414.544 87.8743C414.486 87.8596 414.425 87.8596 414.367 87.8743C414.328 87.8749 414.289 87.885 414.255 87.9037C414.201 87.9202 414.154 87.9531 414.12 87.9978L414.526 87.8919H414.379H414.267L414.173 87.9331C414.097 87.9771 414.039 88.0455 414.008 88.1271C413.987 88.1942 413.987 88.2659 414.008 88.3329C414.018 88.4186 414.055 88.4988 414.114 88.5623V88.5152Z" fill="#6D7DB6"/>
<path d="M412.906 84.7828C412.91 84.9948 413.05 85.1801 413.254 85.2414C413.472 85.3089 413.706 85.3089 413.925 85.2414L414.261 85.1826C414.325 85.1652 414.39 85.1534 414.455 85.1473C414.308 85.1473 414.455 85.1473 414.514 85.1473C414.74 85.1297 414.966 85.1297 415.191 85.1473C415.246 85.1444 415.301 85.1444 415.356 85.1473H415.404C415.563 85.1767 415.722 85.212 415.886 85.2296C416.224 85.2313 416.507 84.9766 416.54 84.6416C416.582 84.316 416.379 84.0087 416.063 83.9184C415.786 83.8488 415.5 83.823 415.215 83.842C414.942 83.8497 414.67 83.8812 414.402 83.936C414.142 83.9889 413.889 84.0718 413.648 84.183L413.478 84.2653H413.448H413.478C413.478 84.3006 413.266 84.2653 413.442 84.2653C413.619 84.2653 413.531 84.2653 413.383 84.2653C413.317 84.2661 413.251 84.278 413.189 84.3006L413.625 84.477C413.529 84.3088 413.322 84.2386 413.144 84.3135C412.965 84.3885 412.871 84.5849 412.924 84.771L412.906 84.7828Z" fill="#6D7DB6"/>
<path d="M413.442 98.0123C413.572 97.9652 413.707 97.9358 413.843 97.8947C413.98 97.8543 414.12 97.8229 414.261 97.8006H414.125C414.192 97.7949 414.259 97.7949 414.326 97.8006C414.434 97.7909 414.54 97.7692 414.644 97.7359C414.858 97.6758 415.007 97.4818 415.009 97.2596C415.003 97.1713 414.979 97.0851 414.938 97.0068C414.875 96.894 414.769 96.8114 414.644 96.7775C414.552 96.7599 414.46 96.7482 414.367 96.7422C414.273 96.7487 414.18 96.7665 414.09 96.7951C413.981 96.8206 413.874 96.856 413.772 96.9009C413.636 96.9461 413.505 97.0073 413.383 97.0832C413.271 97.1714 413.159 97.2596 413.059 97.3537C412.936 97.4817 412.912 97.6758 413 97.83C413.037 97.8849 413.085 97.9311 413.142 97.9652C413.232 98.0196 413.341 98.0345 413.442 98.0064V98.0123Z" fill="#6D7DB6"/>
<path d="M424.527 88.4226C424.992 87.2988 426.083 86.5591 427.301 86.541C428.49 86.5565 429.542 87.3133 429.933 88.4344C430.333 89.6438 430.089 90.9733 429.286 91.9624C428.932 92.4215 428.468 92.7836 427.937 93.0149C427.401 93.209 426.824 93.2557 426.264 93.1502C425.979 93.1235 425.717 93.305 425.641 93.5804C425.566 93.8558 425.699 94.1455 425.958 94.2674C427.1 94.8906 428.585 94.3144 429.521 93.5794C430.592 92.6967 431.273 91.43 431.418 90.0514C431.58 88.7271 431.127 87.4014 430.187 86.4528C429.24 85.5471 427.909 85.1606 426.623 85.418C425.264 85.7158 424.179 86.7376 423.802 88.0757C423.684 88.4932 424.338 88.799 424.527 88.3815V88.4226Z" fill="#6D7DB6"/>
<path d="M427.577 88.9297C427.431 88.9659 427.293 89.0298 427.171 89.1178C427.046 89.2003 426.93 89.2948 426.824 89.4001C426.716 89.5061 426.62 89.6223 426.535 89.747C426.445 89.8744 426.372 90.0128 426.317 90.1586C426.282 90.2873 426.299 90.4244 426.364 90.5408C426.429 90.6509 426.535 90.7311 426.659 90.7642C426.787 90.7996 426.925 90.7827 427.041 90.7172L427.142 90.6408C427.199 90.579 427.242 90.5045 427.265 90.4232L427.218 90.5408C427.289 90.3717 427.38 90.2117 427.489 90.0645L427.412 90.1645C427.515 90.036 427.631 89.9196 427.76 89.8176L427.666 89.8881L427.789 89.7999C427.856 89.754 427.919 89.7029 427.978 89.647L428.043 89.5647C428.073 89.5174 428.09 89.4623 428.09 89.406C428.11 89.315 428.093 89.2199 428.043 89.1414C427.945 88.9807 427.754 88.9021 427.572 88.9473L427.577 88.9297Z" fill="#6D7DB6"/>
<path d="M424.462 87.7926C423.031 85.8522 423.284 82.9769 421.676 81.1953C421.223 80.6955 420.651 80.3191 420.233 79.7899C419.326 78.6139 419.355 77.0322 419.42 75.5622C417.57 77.0204 415.536 78.2302 413.371 79.1608C412.715 79.485 411.995 79.6616 411.263 79.6782C410.516 79.6756 409.841 79.2359 409.537 78.5551C409.413 78.2125 409.456 77.832 409.652 77.5247C409.848 77.2175 410.175 77.0182 410.538 76.9852C410.113 77.558 409.478 77.9387 408.771 78.0436C407.381 78.4081 405.697 78.6316 404.702 77.6026C404.016 76.8105 403.892 75.6781 404.389 74.7567C404.894 73.8665 405.748 73.2271 406.745 72.9927C406.292 73.1161 405.603 73.0985 405.567 72.6222C405.578 72.3881 405.695 72.1717 405.885 72.0342C407.729 70.3349 410.409 69.9057 412.918 69.8704C414.623 69.8456 416.328 69.9655 418.013 70.2291C418.477 70.3275 418.952 70.365 419.426 70.3408C424.474 69.9177 429.522 71.1569 433.797 73.8688C436.536 75.6328 438.751 78.5728 438.774 81.8362C438.731 83.0305 438.543 84.2151 438.215 85.3642C437.378 88.7471 436.471 92.1085 435.493 95.4484C435.299 96.1069 435.04 96.8419 434.416 97.1242C433.952 97.2832 433.448 97.2832 432.984 97.1242C431.123 96.6891 429.615 95.0544 428.114 93.8725C429.881 93.0258 431.058 92.185 431.43 90.2505C431.799 88.2589 430.85 86.2549 429.074 85.276C427.307 84.4116 425.652 84.8703 424.91 86.6872" fill="#E63946"/>
<path d="M424.798 87.5991C423.661 85.788 423.737 83.5301 422.695 81.6838C422.106 80.6724 421.046 80.108 420.469 79.126C419.891 78.144 419.933 76.7387 419.986 75.5627C419.986 75.0218 419.397 74.8924 419.026 75.1688C417.515 76.3439 415.889 77.3625 414.172 78.2087C413.307 78.6321 412.264 79.2142 411.263 79.1436C410.868 79.1266 410.494 78.9581 410.22 78.6732C409.949 78.3263 409.955 77.5796 410.538 77.5325L410.061 76.7093C409.631 77.3796 408.601 77.509 407.876 77.6442C407.068 77.8751 406.203 77.8105 405.438 77.462C404.733 76.9843 404.456 76.0818 404.772 75.2922C405.164 74.4065 405.956 73.7616 406.904 73.5576C407.221 73.4716 407.409 73.1451 407.322 72.8285C407.236 72.5119 406.909 72.325 406.592 72.411C406.474 72.411 406.186 72.5169 406.08 72.411C406.304 72.5874 406.569 72.2111 406.71 72.1053C407.077 71.8335 407.472 71.6009 407.888 71.4114C408.741 71.0245 409.646 70.7631 410.574 70.6353C412.583 70.3707 414.619 70.3707 416.628 70.6353C417.637 70.8198 418.66 70.9142 419.685 70.9175C422.547 70.6905 425.426 71.022 428.161 71.8936C431.647 72.9755 435.275 74.8689 437.119 78.1558C438.036 79.7949 438.335 81.7077 437.961 83.5478C437.561 85.6998 436.931 87.8284 436.365 89.9452C436.043 91.1565 435.707 92.3678 435.358 93.579C435.181 94.2023 435.016 94.8315 434.816 95.4489C434.681 95.8605 434.516 96.4191 434.039 96.5426C433.055 96.8072 431.783 95.9546 431.041 95.4195C430.181 94.8315 429.409 94.073 428.579 93.4203L428.449 94.4022C429.786 93.7437 431.082 92.9264 431.7 91.5152C432.322 90.0473 432.274 88.3826 431.571 86.9523C430.187 84.0887 425.899 83.0068 424.415 86.3643C424.097 87.0993 425.174 87.7343 425.498 86.9993C426.676 84.2769 429.898 85.7292 430.676 87.993C431.065 89.0862 430.982 90.2916 430.446 91.3211C429.857 92.3207 428.814 92.8558 427.819 93.3321C427.653 93.4302 427.542 93.5991 427.518 93.7899C427.494 93.9807 427.559 94.1719 427.695 94.3082C429.309 95.6135 430.84 97.3187 432.955 97.7774C433.98 98.0008 434.987 97.8479 435.599 96.9189C436.212 95.9898 436.412 94.7139 436.713 93.6555C437.498 90.9585 438.218 88.2478 438.874 85.5234C439.463 83.2361 439.74 81.0017 438.827 78.7556C437.166 74.6396 433.09 72.2582 429.074 70.8999C426.891 70.1655 424.614 69.7458 422.312 69.6533C421.175 69.6063 420.015 69.8062 418.884 69.7356C417.518 69.6416 416.169 69.3534 414.761 69.2946C412.276 69.177 409.643 69.2946 407.358 70.3413C406.551 70.7176 405.002 71.5173 405.002 72.5228C405.002 73.5282 406.139 73.6988 406.922 73.54L406.61 72.3934C405.336 72.6918 404.272 73.5595 403.724 74.7454C403.24 75.9054 403.519 77.2427 404.425 78.1146C405.344 78.932 406.633 78.979 407.788 78.8026C408.942 78.6262 410.35 78.291 411.027 77.2209C411.126 77.052 411.127 76.8431 411.03 76.6732C410.933 76.5033 410.752 76.3982 410.556 76.3977C410.061 76.4451 409.609 76.6986 409.311 77.0958C409.013 77.4931 408.896 77.9975 408.989 78.4851C409.248 79.6611 410.562 80.2491 411.687 80.155C413.148 80.0315 414.632 79.1789 415.898 78.5027C417.284 77.7578 418.602 76.8941 419.838 75.9214L418.878 75.5216C418.74 76.7338 418.867 77.9614 419.249 79.1201C419.744 80.349 420.881 80.8841 421.605 81.919C422.919 83.7594 422.783 86.2173 424.203 88.0224C424.474 88.3694 425.039 87.9225 424.792 87.5579L424.798 87.5991Z" fill="#E63946"/>
<path d="M420.787 108.595C420.698 108.766 420.51 108.542 420.634 108.783C420.687 108.869 420.748 108.95 420.816 109.025C420.934 109.177 421.052 109.33 421.164 109.489C421.399 109.799 421.629 110.11 421.853 110.424C422.324 111.071 422.772 111.735 423.196 112.411C423.62 113.088 424.009 113.74 424.374 114.416C424.739 115.093 425.086 115.857 425.487 116.545C425.805 117.098 426.806 116.727 426.553 116.092C426.152 115.153 425.677 114.247 425.133 113.382C424.627 112.529 424.091 111.688 423.52 110.877C422.948 110.065 422.342 109.271 421.712 108.525C421.446 108.213 421.123 107.772 420.693 107.754C420.502 107.746 420.319 107.831 420.202 107.982C420.085 108.132 420.048 108.33 420.104 108.513C420.148 108.658 420.273 108.765 420.424 108.785C420.575 108.805 420.723 108.736 420.804 108.607L420.787 108.595Z" fill="#6D7DB6"/>
<path d="M432.813 96.1007C433.603 97.3649 434.421 98.6056 435.264 99.8345L436.536 101.675C436.936 102.297 437.385 102.887 437.879 103.439C438.041 103.642 438.338 103.675 438.541 103.512C438.744 103.35 438.777 103.054 438.615 102.851C438.239 102.206 437.814 101.59 437.343 101.011C436.919 100.423 436.5 99.8345 436.076 99.2465L433.52 95.6832C433.214 95.2599 432.519 95.6421 432.807 96.1007H432.813Z" fill="#6D7DB6"/>
<path d="M439.469 101.635C435.699 107.309 431.223 112.936 425.481 116.57C425.145 115.982 424.992 115.435 424.65 114.806C424.061 115.206 423.832 115.735 423.26 116.129C422.577 116.6 421.847 117.141 421.652 117.946C421.561 118.528 421.622 119.123 421.829 119.675L422.642 122.544C422.748 122.921 422.895 123.344 423.231 123.491C423.885 123.761 424.409 122.903 424.644 122.25L425.822 118.558L428.137 122.809C428.655 123.773 429.344 124.849 430.434 124.961C431.435 125.067 432.295 124.297 433.008 123.585C437.001 119.581 441.024 115.535 444.14 110.82C445.418 108.885 446.56 106.786 446.837 104.487C446.909 104.146 446.867 103.791 446.719 103.475C446.557 103.239 446.339 103.047 446.083 102.917L442.596 100.729C441.87 100.21 441.05 99.8345 440.182 99.624C439.061 99.5543 437.972 100.011 437.237 100.859C437.154 100.982 437.237 100.712 437.237 100.859C437.237 101.006 437.472 101.182 437.525 101.288C437.714 101.659 438.515 102.729 438.703 103.099" fill="#003566"/>
<path d="M448.245 108.113C457.775 107.525 466.809 112.082 473.924 118.109C481.581 124.577 487.518 132.733 494.097 140.23C497.254 143.834 500.864 147.18 503.314 151.343C505.769 155.692 506.625 160.76 505.735 165.672C504.934 170.635 502.79 175.251 500.175 179.508C497.482 183.819 494.472 187.925 491.17 191.791C484.449 199.806 476.94 207.138 469.613 214.588L466.792 217.452C466.203 218.04 467.122 218.975 467.716 218.375C475.326 210.731 483.142 203.175 490.257 195.031C493.724 191.11 496.933 186.967 499.863 182.63C502.672 178.42 505.164 173.893 506.489 168.977C507.814 164.061 507.956 158.799 506.189 154.042C504.487 149.455 501.135 145.81 497.866 142.282C490.881 134.726 484.862 126.218 477.252 119.267C470.261 112.888 461.462 107.649 451.779 107.225C450.6 107.174 449.42 107.198 448.245 107.296C447.703 107.343 447.691 108.19 448.245 108.16V108.113Z" fill="#6D7DB6"/>
<path d="M447.461 123.169C447.397 129.773 453.216 134.477 457.621 138.575C463.472 144.02 469.34 149.439 475.226 154.833L479.537 158.779C480.215 159.402 480.904 159.955 480.48 160.931C480.056 161.907 479.549 162.695 479.09 163.547C477.264 166.962 475.424 170.368 473.571 173.767C471.718 177.165 469.8 180.584 467.817 184.022C465.979 187.208 464.159 190.437 462.045 193.43C460.923 195.064 459.645 196.587 458.228 197.975C456.909 199.245 455.407 200.327 454.282 201.779C452.591 203.966 451.991 207.871 454.871 209.423C455.205 209.583 455.606 209.46 455.793 209.141C455.98 208.822 455.892 208.413 455.589 208.2C454.602 207.503 454.117 206.292 454.353 205.107C454.541 203.625 455.53 202.449 456.579 201.456C457.757 200.321 459.053 199.31 460.178 198.116C461.352 196.849 462.433 195.499 463.411 194.076C465.467 191.136 467.239 187.979 469.036 184.868C470.944 181.56 472.813 178.228 474.643 174.872C476.473 171.517 478.289 168.151 480.091 164.776L481.375 162.371C481.787 161.595 482.247 160.754 482.076 159.843C481.921 159.223 481.587 158.663 481.116 158.232C480.397 157.509 479.602 156.844 478.848 156.156C473.088 150.899 467.308 145.666 461.509 140.457C458.564 137.805 455.454 135.27 452.745 132.372C450.389 129.814 448.304 126.762 448.257 123.152C448.257 122.934 448.08 122.758 447.862 122.758C447.644 122.758 447.467 122.934 447.467 123.152L447.461 123.169Z" fill="#6D7DB6"/>
<path d="M455.112 208.497C451.679 210.596 447.862 213.101 446.684 217.193C446.684 217.458 446.862 217.69 447.117 217.76C447.373 217.83 447.644 217.721 447.78 217.493C449.069 213.771 452.421 211.348 455.489 209.138C455.872 208.867 455.531 208.244 455.112 208.497Z" fill="#6D7DB6"/>
<path d="M451.908 219.829C452.136 221.91 452.158 224.007 451.973 226.092C451.719 228.199 451.29 230.282 450.689 232.319C450.697 232.576 450.872 232.798 451.12 232.867C451.369 232.935 451.633 232.835 451.773 232.618C452.48 230.549 452.899 228.393 453.015 226.209C453.18 224.05 453.089 221.879 452.745 219.741C452.668 219.271 451.861 219.377 451.908 219.853V219.829Z" fill="#6D7DB6"/>
<path d="M456.862 233.048C457.921 231.43 458.465 229.53 458.423 227.597C458.423 227.009 457.433 227.009 457.457 227.597C457.516 229.367 457.068 231.117 456.167 232.642C455.902 233.089 456.579 233.477 456.862 233.048Z" fill="#6D7DB6"/>
<path d="M462.51 231.517C462.834 229.727 462.975 227.909 462.928 226.09C462.928 225.449 461.897 225.449 461.927 226.09C462.015 227.829 461.944 229.573 461.715 231.3C461.664 231.518 461.79 231.738 462.003 231.805C462.223 231.865 462.45 231.736 462.51 231.517Z" fill="#6D7DB6"/>
<path d="M466.568 230.306C467.546 227.882 467.949 225.266 467.746 222.662C467.64 221.321 467.316 220.01 467.234 218.675C467.176 217.937 467.238 217.194 467.416 216.476C467.624 215.904 467.774 215.313 467.864 214.712C467.935 213.536 467.134 212.677 466.403 211.872C465.638 211.04 464.787 210.291 463.865 209.637C461.98 208.256 459.797 207.333 457.492 206.944C456.697 206.838 456.314 208.003 457.15 208.185C459.223 208.588 461.198 209.384 462.969 210.531C463.886 211.145 464.73 211.861 465.484 212.666C465.895 213.057 466.252 213.502 466.545 213.989C466.857 214.577 466.592 215.241 466.409 215.847C465.685 218.199 466.409 220.492 466.674 222.85C466.946 225.306 466.65 227.793 465.808 230.117C465.626 230.617 466.397 230.811 466.592 230.335L466.568 230.306Z" fill="#6D7DB6"/>
<path d="M400.673 219.552C399.108 218.593 398.618 216.549 399.578 214.985L408.096 201.12C409.056 199.556 411.104 199.065 412.67 200.023C414.235 200.982 414.725 203.026 413.764 204.59L405.247 218.455C404.286 220.019 402.238 220.51 400.673 219.552Z" fill="#6D7DB6"/>
<path d="M403.444 217.156L411.788 203.573L421.996 209.822L413.651 223.406L403.444 217.156Z" fill="#6D7DB6"/>
<path d="M268.176 122.333L265.779 126.231C265.343 126.94 265.448 127.855 266.032 128.448L275.403 137.92C275.732 138.253 276.177 138.445 276.645 138.456L282.282 138.608C282.929 138.626 283.536 138.296 283.872 137.744L286.658 133.216C286.997 132.667 287.015 131.978 286.705 131.411L284.014 126.449C283.796 126.035 283.424 125.724 282.977 125.584L270.267 121.545C269.471 121.294 268.607 121.62 268.176 122.333Z" fill="#6D7DB6"/>
<path d="M482.406 239.105L466.503 229.35C465.531 231.9 463.54 233.932 461.008 234.96C458.028 236.107 454.653 235.434 452.344 233.231C452.07 232.977 451.851 232.668 451.702 232.326C451.557 231.833 451.529 231.314 451.62 230.809C451.93 227.626 452.244 224.444 452.562 221.265L452.468 220.754L428.467 206.054C426.031 204.557 423.099 204.088 420.317 204.75C417.534 205.412 415.129 207.15 413.63 209.582L409.69 215.997C406.568 221.063 408.15 227.696 413.224 230.814L467.204 263.86C472.277 266.973 478.917 265.394 482.04 260.332L485.987 253.911C489.092 248.835 487.489 242.207 482.406 239.105Z" fill="#6D7DB6"/>
<path d="M417.453 225.11L422.812 228.391L435.688 236.277L451.272 245.814L464.818 254.099L469.259 256.815C469.954 257.239 470.638 257.733 471.362 258.103L471.456 258.156C472.045 258.532 472.634 257.568 472.01 257.209L466.65 253.928L453.775 246.043L438.173 236.506L424.626 228.221L420.186 225.504C419.496 225.081 418.807 224.587 418.083 224.217L417.989 224.158C417.4 223.787 416.811 224.746 417.435 225.11H417.453Z" fill="#003566"/>
<path d="M420.951 219.167L426.311 222.448L439.18 230.327L454.765 239.87L468.27 248.167L472.711 250.884C473.4 251.313 474.089 251.807 474.814 252.177L474.908 252.23C475.497 252.601 476.086 251.642 475.462 251.284L470.102 248.003L457.227 240.117L441.642 230.58L428.096 222.295L423.655 219.579C422.96 219.155 422.277 218.661 421.552 218.291L421.458 218.232C420.869 217.862 420.28 218.82 420.904 219.185L420.951 219.167Z" fill="#003566"/>
<path d="M462.174 236.317L476.404 245.026L478.424 246.266C479.013 246.637 479.602 245.678 479.013 245.314L464.736 236.606L462.71 235.365C462.121 234.994 461.532 235.953 462.156 236.317H462.174Z" fill="#003566"/>
<path d="M424.444 213.216L433.438 218.725L447.656 227.422L450.966 229.445C451.228 229.597 451.564 229.509 451.717 229.248C451.87 228.986 451.781 228.651 451.519 228.498L442.526 222.988L428.319 214.292L425.003 212.299C424.414 211.928 423.825 212.887 424.444 213.245V213.216Z" fill="#003566"/>
<path d="M417.836 128.366C416.71 135.276 417.317 142.357 419.603 148.976C421.912 155.573 426.264 161.747 426.335 168.968C426.358 170.636 426.088 172.296 425.54 173.872C425.01 175.389 424.262 176.894 424.244 178.534C424.236 179.213 424.381 179.884 424.668 180.498C424.992 181.198 425.663 181.821 425.746 182.615C425.828 183.409 425.434 184.179 425.428 184.967C425.433 185.607 425.587 186.237 425.875 186.808C427.171 189.395 430.452 190.365 433.073 190.812C436.587 191.321 440.154 191.345 443.674 190.882C451.867 190.038 459.947 188.323 467.775 185.767C468.653 185.479 468.282 184.091 467.393 184.373C460.66 186.53 453.75 188.09 446.743 189.036C443.27 189.577 439.755 189.794 436.241 189.683C433.444 189.53 429.875 189.124 427.813 186.996C427.401 186.594 427.105 186.088 426.959 185.532C426.782 184.767 427.071 184.038 427.171 183.285C427.272 182.626 427.17 181.951 426.877 181.351C426.529 180.634 425.958 180.046 425.769 179.258C425.422 177.735 426.217 176.112 426.718 174.712C427.253 173.24 427.567 171.696 427.648 170.132C427.978 163.346 424.356 157.331 421.723 151.316C418.566 144.179 417.478 136.301 418.584 128.578C418.66 128.072 417.895 127.849 417.806 128.36L417.836 128.366Z" fill="#6D7DB6"/>
<path d="M478.283 157.391C478.442 158.479 478.548 159.572 478.625 160.672C478.66 161.219 478.695 161.766 478.713 162.313C478.713 162.864 478.742 163.416 478.801 163.965C478.867 164.208 479.106 164.362 479.355 164.324C479.603 164.289 479.79 164.08 479.797 163.83C479.828 163.282 479.812 162.734 479.75 162.189C479.708 161.601 479.655 161.048 479.579 160.484C479.433 159.378 479.237 158.281 478.99 157.191C478.89 156.715 478.201 156.926 478.271 157.391H478.283Z" fill="#6D7DB6"/>
<path d="M408.424 270.198L410.874 268.352C411.01 268.268 411.087 268.115 411.072 267.956C411.057 267.797 410.952 267.66 410.802 267.604C410.652 267.549 410.483 267.583 410.367 267.693L407.959 269.598C407.841 269.737 407.837 269.94 407.95 270.082C408.063 270.225 408.261 270.269 408.424 270.186V270.198Z" fill="white"/>
<path d="M353.06 354.98L356.676 355.115C357.732 355.093 358.789 355.162 359.833 355.321C360.743 355.443 361.499 356.081 361.771 356.956C361.95 357.771 362.18 358.574 362.46 359.361C363.231 361.007 364.992 361.195 366.618 361.178C367.702 361.178 368.78 361.178 369.863 361.272C370.452 361.319 371.041 361.389 371.63 361.478C372.211 361.612 372.802 361.694 373.397 361.725C373.845 361.725 374.098 361.042 373.645 360.831C372.602 360.455 371.507 360.245 370.399 360.208C369.302 360.085 368.199 360.024 367.095 360.025C366.17 360.025 365.045 360.172 364.209 359.69C363.373 359.208 363.243 358.208 363.031 357.338C362.589 355.615 361.635 354.539 359.821 354.275C358.823 354.173 357.82 354.141 356.817 354.181H353.054C352.839 354.181 352.665 354.354 352.665 354.569C352.665 354.783 352.839 354.957 353.054 354.957L353.06 354.98Z" fill="white"/>
<path d="M507.732 244.748C508.032 247.9 508.603 251.052 509.057 254.156C509.139 254.744 510.046 254.497 509.952 253.909C509.475 250.817 509.104 247.683 508.474 244.619C508.391 244.202 507.691 244.29 507.732 244.719V244.748Z" fill="white"/>
<path d="M511.024 246.184C511.494 247.394 511.785 248.666 511.89 249.959C511.896 250.2 512.09 250.394 512.332 250.4C512.576 250.4 512.773 250.203 512.773 249.959C512.637 248.59 512.303 247.247 511.784 245.972C511.75 245.833 511.642 245.723 511.503 245.685C511.364 245.648 511.215 245.689 511.116 245.793C511.016 245.897 510.981 246.047 511.024 246.184Z" fill="white"/>
<path d="M406.18 217.525C408.448 213.962 410.556 210.299 412.541 206.576C412.788 206.112 412.076 205.7 411.84 206.165C409.897 209.916 407.77 213.568 405.503 217.131C405.232 217.554 405.909 217.948 406.18 217.525Z" fill="#003566"/>
<path d="M392.091 199.767C393.906 201.008 396.24 201.208 398.24 200.296C398.697 200.093 399.125 199.83 399.513 199.514C400.102 199.038 400.537 198.491 401.35 198.415C402.689 198.347 404.018 198.14 405.314 197.797C407.894 196.998 410.226 195.598 412.517 194.199C414.808 192.799 417.229 191.312 419.503 189.712C422.027 187.972 424.34 185.943 426.394 183.668C426.983 183.033 426.023 182.098 425.463 182.739C421.994 186.672 417.6 189.553 413.171 192.288C411.017 193.72 408.752 194.979 406.398 196.051C405.185 196.563 403.91 196.913 402.605 197.092C401.427 197.239 400.414 197.174 399.46 197.997C398.505 198.82 397.563 199.567 396.197 199.761C394.919 199.965 393.61 199.722 392.492 199.073C392.044 198.809 391.685 199.467 392.091 199.755V199.767Z" fill="#6D7DB6"/>
<path d="M390.048 201.071C387.356 201.659 384.712 202.341 381.979 202.753C379.47 203.129 376.678 203.612 374.134 203.082C371.589 202.553 370.288 200.677 369.068 198.614C368.366 197.438 367.688 196.232 367.036 194.997C366.447 193.821 365.794 192.645 366.247 191.334C367.178 188.576 369.328 186.377 371.189 184.237C371.405 184.021 371.405 183.671 371.189 183.455C370.972 183.239 370.622 183.239 370.405 183.455C369.351 184.385 368.406 185.433 367.59 186.577C366.737 187.684 365.984 188.865 365.34 190.105C364.69 191.265 364.578 192.649 365.034 193.898C365.606 195.268 366.29 196.59 367.078 197.849C368.32 200.054 369.628 202.612 372.013 203.776C374.493 204.993 377.426 204.594 380.065 204.247C383.549 203.86 386.97 203.036 390.248 201.795C390.45 201.739 390.568 201.531 390.513 201.33C390.458 201.129 390.25 201.01 390.048 201.066V201.071Z" fill="#6D7DB6"/>
<path d="M374.44 186.125C373.16 186.969 372.141 188.152 371.495 189.541C371.386 189.695 371.374 189.897 371.462 190.063C371.551 190.229 371.725 190.332 371.913 190.328C372.102 190.325 372.273 190.216 372.355 190.047C372.5 189.72 372.668 189.404 372.855 189.1C373.037 188.814 373.234 188.537 373.444 188.271C373.891 187.715 374.39 187.203 374.935 186.742C375.27 186.448 374.834 185.884 374.452 186.125H374.44Z" fill="#6D7DB6"/>
<path d="M374.669 192.981C375.081 191.555 376.113 190.39 377.479 189.806C377.932 189.606 377.608 188.818 377.137 189C375.519 189.671 374.313 191.066 373.886 192.763C373.847 192.903 373.886 193.053 373.988 193.156C374.089 193.26 374.239 193.301 374.379 193.265C374.52 193.229 374.631 193.12 374.669 192.981Z" fill="#6D7DB6"/>
<path d="M377.649 196.037C378.038 194.579 378.907 193.294 380.117 192.391C380.357 192.24 380.437 191.928 380.3 191.68C380.154 191.433 379.836 191.349 379.587 191.491C378.88 192.02 378.28 192.679 377.82 193.432C377.366 194.166 377.051 194.977 376.89 195.825C376.833 196.041 376.958 196.262 377.172 196.325C377.277 196.354 377.389 196.339 377.483 196.285C377.577 196.231 377.645 196.142 377.673 196.037H377.649Z" fill="#6D7DB6"/>
<path d="M369.728 185.118L284.078 132.68L282.258 135.62L367.36 187.716C368.059 186.772 368.852 185.901 369.728 185.118Z" fill="#6D7DB6"/>
<path d="M386.402 195.34C384.865 195.663 383.657 196.251 383.457 197.268C383.434 197.381 383.422 197.495 383.422 197.61L406.657 211.833L408.477 208.893L386.402 195.34Z" fill="#6D7DB6"/>
<path d="M378.08 186.919C377.591 186.855 377.556 186.178 377.768 185.861C378.139 185.436 378.643 185.15 379.199 185.049C380.469 184.668 381.799 184.526 383.121 184.632C384.253 184.694 385.272 185.337 385.813 186.331C386.04 186.83 386.194 187.359 386.272 187.901C386.422 188.434 386.47 188.991 386.414 189.542C386.351 189.837 386.508 190.136 386.788 190.252C387.067 190.368 387.39 190.27 387.556 190.018C388.057 189.324 387.768 188.307 387.627 187.531C387.505 186.72 387.221 185.942 386.791 185.243C385.789 183.75 384.028 183.244 382.309 183.344C381.338 183.409 380.375 183.567 379.434 183.815C378.66 183.971 377.936 184.314 377.326 184.814C376.786 185.273 376.557 186 376.737 186.684C376.887 187.29 377.443 187.708 378.068 187.684C378.279 187.684 378.451 187.513 378.451 187.301C378.451 187.09 378.279 186.919 378.068 186.919H378.08Z" fill="#6D7DB6"/>
<path d="M426.883 129.795C426.883 129.795 426.883 129.795 426.883 129.766L426.93 129.877C426.927 129.854 426.927 129.83 426.93 129.807V129.93V129.848V129.971C426.926 129.94 426.926 129.909 426.93 129.877L426.883 129.989C426.896 129.959 426.912 129.929 426.93 129.901L426.859 130.001C426.886 129.965 426.918 129.934 426.953 129.907L426.853 129.983C426.895 129.95 426.94 129.923 426.989 129.901L426.871 129.954C426.914 129.936 426.96 129.924 427.006 129.919H426.871H426.995H426.853H426.942L426.818 129.866L426.948 129.942L426.841 129.86C426.879 129.891 426.913 129.926 426.942 129.966L426.859 129.854C426.907 129.917 426.947 129.986 426.977 130.06L426.924 129.924C426.956 130.006 426.98 130.091 426.995 130.177V130.03C427.006 130.13 427.006 130.231 426.995 130.33V130.177C426.984 130.26 426.964 130.34 426.936 130.418L426.995 130.283L426.924 130.407L427.012 130.289C426.99 130.317 426.964 130.343 426.936 130.365L427.054 130.277C427.022 130.3 426.989 130.32 426.953 130.336L427.095 130.277C427.055 130.294 427.014 130.306 426.971 130.312H427.124H426.959H427.112L426.965 130.271L427.107 130.33C427.06 130.31 427.017 130.285 426.977 130.254L427.095 130.348C427.06 130.319 427.029 130.288 427.001 130.254L427.095 130.377C427.06 130.33 427.03 130.278 427.006 130.224L427.065 130.365C427.041 130.307 427.024 130.246 427.012 130.183V130.342C427.001 130.264 427.001 130.185 427.012 130.107V130.265C427.026 130.181 427.047 130.098 427.077 130.018L427.018 130.165V130.113C427.095 129.966 427.118 129.798 427.083 129.636C426.989 129.311 426.651 129.12 426.323 129.207C426.168 129.248 426.036 129.35 425.958 129.489C425.895 129.614 425.85 129.746 425.823 129.883C425.802 130.022 425.802 130.162 425.823 130.301C425.83 130.39 425.844 130.478 425.864 130.565C425.891 130.652 425.924 130.736 425.964 130.818C425.982 130.857 426.004 130.895 426.029 130.93C426.079 131.004 426.136 131.073 426.199 131.136C426.415 131.335 426.695 131.45 426.989 131.459C427.282 131.473 427.568 131.365 427.778 131.159C427.989 130.923 428.106 130.617 428.108 130.301C428.117 130.101 428.087 129.901 428.019 129.713C427.981 129.597 427.927 129.486 427.86 129.383C427.768 129.254 427.652 129.142 427.519 129.054C427.289 128.904 427.007 128.857 426.741 128.925C426.472 128.991 426.241 129.163 426.099 129.401C425.938 129.662 425.938 129.992 426.099 130.254C426.164 130.354 426.262 130.429 426.376 130.465C426.496 130.498 426.623 130.481 426.73 130.418C426.947 130.288 427.02 130.009 426.894 129.789L426.883 129.795Z" fill="#003566"/>
<path d="M429.127 140.05L429.168 140.156V140.086V140.209C429.162 140.182 429.162 140.154 429.168 140.127V140.25C429.172 140.217 429.182 140.186 429.197 140.156L429.144 140.274C429.159 140.243 429.177 140.213 429.197 140.186L429.121 140.28C429.151 140.245 429.185 140.214 429.221 140.186L429.121 140.262C429.162 140.231 429.208 140.205 429.256 140.186L429.139 140.233C429.182 140.215 429.227 140.203 429.274 140.197H429.133H429.256H429.121H429.209L429.086 140.144L429.215 140.221L429.103 140.139C429.141 140.171 429.177 140.206 429.209 140.244L429.127 140.133C429.174 140.197 429.213 140.266 429.245 140.338L429.192 140.203C429.221 140.285 429.243 140.37 429.256 140.456V140.309C429.268 140.409 429.268 140.509 429.256 140.609V140.456C429.246 140.538 429.226 140.619 429.197 140.697L429.25 140.562C429.231 140.605 429.208 140.647 429.18 140.685L429.274 140.568C429.252 140.596 429.226 140.622 429.197 140.644L429.315 140.556C429.284 140.579 429.25 140.599 429.215 140.615L429.356 140.556C429.315 140.574 429.272 140.586 429.227 140.591H429.386C429.332 140.603 429.275 140.603 429.221 140.591H429.374C429.323 140.584 429.274 140.57 429.227 140.55L429.368 140.609C429.322 140.591 429.279 140.568 429.239 140.538L429.356 140.627C429.319 140.601 429.287 140.569 429.262 140.533L429.351 140.656C429.316 140.608 429.286 140.557 429.262 140.503L429.327 140.65C429.301 140.59 429.283 140.527 429.274 140.462V140.621C429.268 140.542 429.268 140.464 429.274 140.386V140.544C429.287 140.46 429.309 140.377 429.339 140.297L429.28 140.444C429.278 140.427 429.278 140.409 429.28 140.391C429.357 140.247 429.378 140.08 429.339 139.921C429.302 139.76 429.2 139.623 429.056 139.541C428.913 139.459 428.742 139.442 428.585 139.492C428.428 139.528 428.294 139.631 428.22 139.774C428.158 139.897 428.113 140.027 428.084 140.162C428.064 140.302 428.064 140.445 428.084 140.585C428.092 140.674 428.106 140.763 428.125 140.85C428.153 140.935 428.186 141.017 428.226 141.097C428.244 141.136 428.265 141.174 428.29 141.209C428.339 141.284 428.396 141.353 428.461 141.415C428.676 141.615 428.956 141.732 429.25 141.744C429.544 141.754 429.83 141.644 430.04 141.438C430.249 141.203 430.367 140.9 430.369 140.585C430.379 140.386 430.349 140.186 430.281 139.997C430.24 139.882 430.187 139.772 430.122 139.668C430.029 139.538 429.914 139.427 429.781 139.339C429.551 139.189 429.269 139.143 429.003 139.21C428.733 139.278 428.502 139.452 428.361 139.692C428.199 139.951 428.199 140.279 428.361 140.538C428.426 140.639 428.524 140.714 428.638 140.75C428.757 140.782 428.884 140.765 428.991 140.703C429.203 140.569 429.276 140.294 429.156 140.074L429.127 140.05Z" fill="#003566"/>
<path d="M431.371 150.31V150.281L431.418 150.393V150.322V150.446C431.412 150.417 431.412 150.387 431.418 150.357V150.487C431.415 150.454 431.415 150.42 431.418 150.387L431.371 150.504L431.424 150.416L431.347 150.516C431.374 150.477 431.408 150.443 431.447 150.416L431.347 150.493C431.388 150.46 431.434 150.435 431.483 150.416L431.359 150.463C431.403 150.449 431.449 150.437 431.494 150.428H431.359H431.483H431.347L431.436 150.457L431.306 150.404C431.355 150.422 431.401 150.448 431.441 150.481L431.329 150.393C431.368 150.425 431.403 150.46 431.436 150.499L431.347 150.393C431.399 150.452 431.441 150.52 431.471 150.593L431.412 150.463C431.447 150.544 431.471 150.629 431.483 150.716V150.563C431.494 150.663 431.494 150.763 431.483 150.863V150.716C431.475 150.797 431.455 150.876 431.424 150.951L431.483 150.816C431.466 150.861 431.442 150.903 431.412 150.94L431.5 150.822C431.48 150.852 431.456 150.88 431.43 150.904L431.542 150.81L431.447 150.869L431.583 150.81C431.544 150.829 431.502 150.841 431.459 150.845H431.618C431.561 150.851 431.504 150.851 431.447 150.845H431.606C431.555 150.841 431.505 150.827 431.459 150.804L431.6 150.863C431.552 150.846 431.507 150.822 431.465 150.793L431.589 150.881C431.551 150.856 431.518 150.827 431.489 150.793L431.583 150.91C431.548 150.865 431.518 150.815 431.494 150.763L431.553 150.904C431.529 150.844 431.513 150.781 431.506 150.716V150.875C431.5 150.797 431.5 150.718 431.506 150.64V150.804C431.516 150.717 431.538 150.632 431.571 150.551L431.506 150.698L431.536 150.646C431.613 150.501 431.634 150.334 431.595 150.175C431.551 150.02 431.45 149.888 431.312 149.805C431.169 149.724 430.999 149.703 430.841 149.746C430.686 149.786 430.554 149.888 430.475 150.028C430.413 150.153 430.367 150.285 430.34 150.422C430.319 150.561 430.319 150.701 430.34 150.84C430.345 150.929 430.359 151.018 430.381 151.104C430.406 151.192 430.439 151.276 430.481 151.357C430.499 151.395 430.52 151.43 430.546 151.463C430.594 151.539 430.649 151.61 430.711 151.675C430.929 151.873 431.211 151.987 431.506 151.998C431.798 152.009 432.082 151.898 432.29 151.692C432.501 151.458 432.62 151.155 432.625 150.84C432.634 150.64 432.604 150.44 432.537 150.252C432.494 150.138 432.439 150.03 432.372 149.928C432.281 149.795 432.165 149.681 432.03 149.593C431.801 149.443 431.519 149.396 431.253 149.464C430.987 149.537 430.759 149.709 430.617 149.946C430.455 150.205 430.455 150.533 430.617 150.793C430.678 150.897 430.777 150.973 430.894 151.004C431.073 151.052 431.263 150.988 431.377 150.842C431.49 150.695 431.504 150.495 431.412 150.334L431.371 150.31Z" fill="#003566"/>
<path d="M433.609 160.555L433.656 160.667C433.651 160.643 433.651 160.619 433.656 160.596V160.72V160.637V160.761C433.662 160.728 433.672 160.697 433.686 160.667L433.638 160.778C433.652 160.747 433.67 160.717 433.691 160.69L433.615 160.79C433.643 160.754 433.675 160.721 433.709 160.69L433.609 160.767L433.744 160.69L433.627 160.743C433.67 160.726 433.716 160.714 433.762 160.708H433.627H433.75H433.609H433.703L433.574 160.655C433.62 160.675 433.664 160.7 433.703 160.731L433.597 160.649C433.635 160.681 433.671 160.717 433.703 160.755L433.615 160.643C433.662 160.706 433.703 160.773 433.739 160.843L433.68 160.714C433.715 160.794 433.739 160.879 433.75 160.967V160.82C433.765 160.919 433.765 161.02 433.75 161.119V160.967C433.74 161.047 433.72 161.126 433.691 161.202L433.75 161.066C433.734 161.111 433.71 161.153 433.68 161.19L433.768 161.078C433.746 161.107 433.72 161.132 433.691 161.155L433.809 161.061C433.782 161.086 433.75 161.105 433.715 161.119L433.851 161.061C433.811 161.078 433.769 161.09 433.727 161.096H433.88C433.825 161.102 433.77 161.102 433.715 161.096H433.874C433.824 161.09 433.774 161.079 433.727 161.061L433.868 161.119C433.821 161.097 433.776 161.072 433.733 161.043L433.851 161.137C433.816 161.109 433.785 161.077 433.756 161.043L433.851 161.161C433.816 161.115 433.786 161.066 433.762 161.014L433.821 161.155C433.797 161.094 433.779 161.031 433.768 160.967V161.131C433.756 161.051 433.756 160.97 433.768 160.89V161.055C433.779 160.969 433.803 160.886 433.839 160.808L433.774 160.949C433.776 160.931 433.776 160.914 433.774 160.896C433.862 160.758 433.889 160.589 433.848 160.431C433.806 160.272 433.701 160.138 433.556 160.061C433.415 159.974 433.244 159.951 433.085 159.996C432.929 160.038 432.796 160.14 432.714 160.279C432.653 160.403 432.609 160.536 432.584 160.673C432.564 160.811 432.564 160.952 432.584 161.09C432.594 161.179 432.61 161.268 432.631 161.355C432.656 161.442 432.69 161.527 432.731 161.607C432.747 161.645 432.767 161.68 432.79 161.713C432.839 161.79 432.897 161.861 432.961 161.925C433.18 162.123 433.461 162.238 433.756 162.248C434.047 162.259 434.33 162.151 434.54 161.948C434.751 161.712 434.869 161.407 434.869 161.09C434.885 160.89 434.854 160.689 434.781 160.502C434.697 160.229 434.52 159.994 434.28 159.838C434.05 159.69 433.769 159.643 433.503 159.708C433.235 159.781 433.005 159.953 432.861 160.19C432.702 160.452 432.702 160.781 432.861 161.043C432.923 161.142 433.019 161.216 433.132 161.249C433.251 161.283 433.378 161.268 433.485 161.208C433.7 161.076 433.773 160.798 433.65 160.578L433.609 160.555Z" fill="#003566"/>
<path d="M435.877 170.821L435.924 170.932C435.921 170.909 435.921 170.885 435.924 170.862V170.985V170.903V171.026C435.92 170.995 435.92 170.964 435.924 170.932L435.877 171.044C435.89 171.012 435.908 170.982 435.93 170.956L435.853 171.056C435.88 171.02 435.912 170.988 435.947 170.962L435.847 171.038C435.889 171.005 435.934 170.978 435.983 170.956L435.865 171.009C435.908 170.991 435.954 170.979 436 170.973H435.865H435.988H435.847H435.935L435.812 170.921L435.941 170.997L435.835 170.915C435.873 170.946 435.907 170.981 435.935 171.02L435.853 170.909C435.901 170.972 435.941 171.041 435.971 171.115L435.918 170.979C435.95 171.061 435.974 171.146 435.988 171.232V171.085C436 171.185 436 171.285 435.988 171.385V171.232C435.978 171.314 435.958 171.395 435.93 171.473L435.988 171.332L435.918 171.461L436.006 171.344C435.984 171.372 435.958 171.398 435.93 171.42L436.047 171.332C436.016 171.355 435.982 171.375 435.947 171.391L436.089 171.332C436.048 171.347 436.007 171.358 435.965 171.367H436.118C436.063 171.373 436.008 171.373 435.953 171.367H436.106L435.959 171.326L436.1 171.385C436.054 171.365 436.011 171.339 435.971 171.309L436.089 171.403L435.994 171.309L436.089 171.432C436.054 171.385 436.024 171.333 436 171.279L436.059 171.42C436.035 171.362 436.018 171.3 436.006 171.238V171.397C435.994 171.319 435.994 171.24 436.006 171.162V171.32C436.019 171.236 436.041 171.153 436.071 171.073L436.012 171.22V171.167C436.089 171.021 436.112 170.853 436.077 170.691C436.031 170.539 435.93 170.409 435.794 170.327C435.649 170.244 435.478 170.221 435.317 170.262C435.162 170.302 435.03 170.404 434.952 170.544C434.892 170.67 434.846 170.802 434.816 170.938C434.799 171.077 434.799 171.217 434.816 171.356C434.824 171.445 434.838 171.533 434.858 171.62C434.885 171.707 434.918 171.791 434.958 171.873C434.976 171.912 434.998 171.95 435.023 171.985C435.073 172.059 435.13 172.127 435.193 172.191C435.412 172.389 435.693 172.503 435.988 172.514C436.28 172.527 436.564 172.419 436.772 172.214C436.983 171.978 437.1 171.672 437.102 171.356C437.117 171.026 437.031 170.7 436.854 170.421C436.762 170.291 436.646 170.179 436.513 170.091C436.283 169.943 436.002 169.894 435.735 169.956C435.466 170.027 435.236 170.2 435.093 170.438C434.934 170.7 434.934 171.029 435.093 171.291C435.158 171.391 435.256 171.466 435.37 171.503C435.49 171.532 435.616 171.515 435.723 171.456C435.941 171.326 436.014 171.046 435.888 170.826L435.877 170.821Z" fill="#003566"/>
<path d="M438.097 181.074L438.144 181.18C438.141 181.156 438.141 181.133 438.144 181.109V181.233C438.138 181.205 438.138 181.177 438.144 181.15V181.274C438.148 181.241 438.158 181.209 438.173 181.18L438.12 181.297C438.135 181.266 438.153 181.237 438.173 181.209L438.097 181.303C438.127 181.269 438.161 181.237 438.197 181.209L438.097 181.285C438.137 181.252 438.183 181.226 438.232 181.209L438.114 181.256C438.158 181.238 438.203 181.226 438.25 181.221H438.114H438.232H438.097H438.185L438.061 181.168L438.191 181.244L438.079 181.162C438.12 181.191 438.156 181.227 438.185 181.268L438.103 181.156C438.151 181.219 438.191 181.288 438.221 181.362L438.167 181.227C438.197 181.309 438.219 181.393 438.232 181.48V181.333C438.244 181.432 438.244 181.533 438.232 181.632V181.48C438.222 181.562 438.202 181.643 438.173 181.721L438.226 181.585C438.207 181.629 438.184 181.67 438.156 181.709L438.25 181.591C438.227 181.62 438.202 181.645 438.173 181.668L438.291 181.579C438.26 181.602 438.226 181.622 438.191 181.638L438.332 181.579C438.293 181.597 438.251 181.608 438.209 181.615H438.362C438.308 181.627 438.251 181.627 438.197 181.615H438.35L438.203 181.574L438.344 181.632C438.297 181.615 438.253 181.589 438.215 181.556L438.332 181.65C438.298 181.622 438.267 181.59 438.238 181.556L438.327 181.679C438.291 181.632 438.262 181.581 438.238 181.527L438.303 181.674C438.277 181.613 438.259 181.55 438.25 181.485V181.644C438.238 181.566 438.238 181.487 438.25 181.409V181.568C438.263 181.483 438.285 181.401 438.315 181.321L438.256 181.468C438.254 181.45 438.254 181.432 438.256 181.415C438.334 181.269 438.355 181.099 438.315 180.939C438.277 180.779 438.174 180.643 438.031 180.562C437.887 180.482 437.717 180.465 437.561 180.515C437.404 180.552 437.27 180.655 437.196 180.797C437.134 180.92 437.089 181.051 437.06 181.186C437.04 181.324 437.04 181.465 437.06 181.603C437.068 181.694 437.082 181.784 437.101 181.873C437.13 181.958 437.163 182.04 437.202 182.12C437.22 182.16 437.241 182.197 437.266 182.232C437.315 182.307 437.372 182.376 437.437 182.438C437.653 182.638 437.932 182.755 438.226 182.767C438.52 182.775 438.804 182.665 439.016 182.461C439.225 182.227 439.343 181.924 439.345 181.609C439.355 181.409 439.325 181.209 439.257 181.021C439.219 180.905 439.165 180.794 439.098 180.692C439.005 180.562 438.89 180.45 438.756 180.362C438.527 180.213 438.245 180.166 437.979 180.233C437.711 180.301 437.48 180.472 437.337 180.709C437.175 180.971 437.175 181.301 437.337 181.562C437.402 181.662 437.5 181.737 437.614 181.774C437.733 181.805 437.86 181.788 437.967 181.726C438.179 181.593 438.251 181.318 438.132 181.097L438.097 181.074Z" fill="#003566"/>
</svg>
