<svg width="512" height="576" viewBox="0 0 512 576" fill="none" xmlns="http://www.w3.org/2000/svg">
<path d="M72.3887 290.216V290.272C72.3929 290.415 72.5 290.535 72.6419 290.554C72.7831 290.568 72.9149 290.481 72.9571 290.345C73.0584 290.081 73.109 289.782 73.2384 289.54C73.3679 289.297 73.4354 289.044 73.6324 288.937C73.5986 288.937 73.7281 288.937 73.7055 288.937C73.683 288.937 73.7449 288.937 73.7055 288.937C73.6661 288.937 73.7055 288.937 73.7055 288.937C73.7055 288.937 73.6774 288.863 73.7055 288.937C73.7337 289.01 73.7055 289.027 73.7055 288.937C73.7196 289.041 73.7196 289.147 73.7055 289.252C73.7055 289.179 73.7055 289.252 73.7055 289.252C73.7055 289.252 73.7055 289.314 73.7055 289.342C73.7055 289.37 73.6718 289.511 73.6605 289.596C73.5965 289.93 73.5607 290.27 73.5536 290.61C73.5536 290.977 73.8262 291.286 74.1895 291.331C74.5351 291.403 74.8943 291.368 75.2194 291.23C75.4668 291.1 75.6645 290.892 75.7821 290.638C75.9087 290.366 76.005 290.081 76.0691 289.787C76.1002 289.551 76.2115 289.332 76.3843 289.168C76.5304 289.013 76.5447 288.775 76.4181 288.604C76.2846 288.432 76.0465 288.382 75.8553 288.486C75.3376 288.875 75.2925 289.449 75.0899 290.019C75.0639 290.114 75.0241 290.205 74.9718 290.289L74.9155 290.368C74.9155 290.368 74.9549 290.317 74.9155 290.368C74.8761 290.419 74.8592 290.419 74.9155 290.396C74.9718 290.374 74.8592 290.43 74.848 290.436C74.8367 290.441 74.7748 290.436 74.7635 290.464C74.6924 290.469 74.6209 290.469 74.5497 290.464H74.4315C74.3358 290.464 74.4878 290.464 74.4315 290.464H74.3696C74.4419 290.483 74.4992 290.539 74.5215 290.61C74.5215 290.667 74.5215 290.667 74.5215 290.61C74.5497 290.469 74.5215 290.306 74.5553 290.159C74.5891 290.013 74.6003 289.833 74.6285 289.669C74.6941 289.387 74.7093 289.095 74.6735 288.807C74.6203 288.479 74.3943 288.205 74.0826 288.091C73.7392 287.992 73.3691 288.077 73.1034 288.317C72.8277 288.568 72.632 288.896 72.5406 289.258C72.4272 289.622 72.3927 290.006 72.4393 290.385L73.0021 290.312V290.255C73.0021 290.1 72.8761 289.973 72.7207 289.973C72.5653 289.973 72.4393 290.1 72.4393 290.255L72.3887 290.216Z" fill="#003566"/>
<path d="M140.889 152.27C146.792 155.651 152.915 158.706 158.993 161.76C165.071 164.814 171.228 167.772 177.446 170.545C179.005 171.243 180.564 171.931 182.134 172.596C183.363 173.157 184.667 173.537 186.006 173.723C187.269 173.906 188.556 173.611 189.613 172.894C190.739 172.066 191.301 170.77 191.808 169.513C193.823 164.408 194.16 158.852 194.897 153.465C195.238 150.482 195.885 147.542 196.828 144.691C197.323 143.296 197.966 141.959 198.747 140.702C199.428 139.609 200.626 137.574 202.174 137.834C202.394 137.886 202.626 137.837 202.806 137.699C202.986 137.561 203.095 137.35 203.103 137.123C203.299 135.619 204.476 134.481 205.781 133.85C207.297 133.166 209.008 133.056 210.599 133.54C212.438 134.1 214.185 134.929 215.782 136.002C216.491 136.442 217.385 136.915 217.757 137.693C217.993 138.183 217.965 139.011 217.335 139.18C217.039 139.27 216.823 139.526 216.783 139.833C216.742 140.14 216.886 140.443 217.149 140.606C220.222 142.105 219.49 146.833 219.344 149.582C219.096 154.143 218.747 158.692 218.297 163.23C217.841 167.851 217.312 172.466 216.609 177.053C216.042 181.361 215.079 185.607 213.733 189.737C212.495 193.333 210.66 196.888 207.633 199.289C204.436 201.825 200.216 203.025 196.259 203.712C187.75 205.194 179.016 203.712 170.873 201.115C161.39 198.066 152.302 193.648 143.433 189.185C142.504 188.723 141.682 190.109 142.617 190.588C150.844 194.826 159.331 198.821 168.065 201.892C176.506 204.862 185.511 206.727 194.453 205.651C198.707 205.144 203.125 204.073 206.834 201.864C210.345 199.773 212.76 196.471 214.363 192.763C216.108 188.723 217.093 184.373 217.83 180.051C218.635 175.351 219.203 170.607 219.71 165.873C220.222 161.055 220.593 156.226 220.863 151.397C221.045 149.359 221.103 147.311 221.038 145.266C220.937 143.694 220.633 142.015 219.67 140.724C219.216 140.099 218.615 139.596 217.92 139.259L217.734 140.685C219.248 140.268 219.777 138.431 219.158 137.107C218.398 135.456 216.344 134.509 214.842 133.686C211.657 131.939 207.757 130.807 204.436 132.875C202.898 133.776 201.86 135.337 201.622 137.107L202.551 136.402C199.765 135.946 197.97 138.938 196.839 141.045C195.632 143.386 194.764 145.887 194.261 148.472C193.136 153.792 192.99 159.263 191.791 164.566C191.498 165.87 191.122 167.153 190.665 168.409C190.198 169.711 189.669 171.305 188.358 171.976C187.199 172.573 185.786 172.331 184.588 171.976C183.148 171.509 181.741 170.944 180.378 170.285C174.131 167.558 167.969 164.65 161.852 161.641C154.992 158.26 148.244 154.665 141.311 151.498C140.799 151.262 140.36 151.972 140.861 152.259L140.889 152.27Z" fill="#003566"/>
<path d="M205.573 127.189C206.019 123.707 206.882 120.292 208.145 117.017C208.674 115.659 209.388 114.2 210.739 113.636C212.09 113.073 214.037 114.2 213.643 115.614C214.397 114.786 215.455 114.104 216.575 114.211C217.695 114.318 218.708 115.507 218.308 116.561C218.952 115.506 220.304 115.134 221.395 115.713C222.486 116.292 222.939 117.622 222.428 118.747C223.486 117.558 225.607 118.15 226.485 119.474C227.363 120.799 227.363 122.5 227.324 124.089C227.369 124.657 227.235 125.225 226.941 125.712C226.592 126.157 225.815 126.276 225.495 125.808C224.847 129.307 223.879 132.835 221.842 135.754C219.805 138.673 216.547 140.921 212.99 140.966C210.294 141.006 207.706 139.794 205.601 138.109" fill="white"/>
<path d="M205.989 127.28C206.464 123.989 207.307 120.762 208.505 117.661C208.961 116.483 209.49 115.086 210.615 114.393C211.398 113.908 213.345 114.184 213.058 115.463C212.987 115.733 213.104 116.016 213.344 116.157C213.584 116.297 213.888 116.26 214.088 116.066C214.701 115.424 215.54 114.759 216.485 114.849C216.864 114.864 217.218 115.046 217.452 115.345C217.686 115.645 217.777 116.032 217.701 116.404C217.481 117.12 218.483 117.475 218.865 116.895C219.375 116.143 220.369 115.9 221.167 116.331C221.908 116.82 222.181 117.778 221.809 118.585C221.544 119.216 222.478 119.661 222.906 119.227C224.116 117.993 225.878 119.442 226.283 120.676C226.545 121.564 226.651 122.49 226.598 123.414C226.605 123.824 226.59 124.234 226.553 124.643C226.553 124.829 226.316 125.68 225.99 125.302C225.805 125.119 225.537 125.047 225.285 125.113C225.034 125.179 224.835 125.373 224.763 125.623C223.908 130.199 222.467 135.062 218.663 138.06C216.998 139.438 214.914 140.207 212.754 140.24C210.317 140.207 208.015 139.08 206.136 137.592C205.382 137.028 204.312 138.06 205.072 138.657C208.252 141.17 212.326 142.601 216.282 141.108C220.008 139.716 222.681 136.561 224.217 132.971C225.135 130.735 225.799 128.402 226.198 126.018L224.977 126.344C225.939 127.505 227.577 126.576 227.915 125.364C228.076 124.613 228.125 123.842 228.061 123.076C228.06 122.289 227.968 121.504 227.785 120.738C227.501 119.417 226.607 118.311 225.377 117.757C224.234 117.209 222.872 117.434 221.966 118.32L223.064 118.963C223.695 117.513 223.086 115.823 221.676 115.11C220.267 114.398 218.547 114.911 217.757 116.28L218.922 116.771C219.242 115.465 218.485 114.137 217.2 113.75C215.708 113.243 214.195 114.167 213.204 115.221L214.234 115.824C214.549 114.387 213.418 113.232 212.062 112.978C210.424 112.674 209.113 113.846 208.364 115.187C207.473 116.962 206.8 118.839 206.361 120.777C205.797 122.882 205.385 125.025 205.128 127.19C205.072 127.669 205.916 127.787 205.984 127.302L205.989 127.28Z" fill="#003566"/>
<path d="M137.596 221.883C167.575 295.307 185.234 380.046 191.059 459.184C192.522 479.087 192.004 499.018 206.974 509.51C208.325 510.457 207.419 512.716 205.848 513.229C198.009 515.793 192.652 515.585 177.401 514.356C172.375 513.945 170.439 508.687 169.696 504.416C168.999 500.404 168.391 496.476 167.023 492.616C165.481 488.272 163.816 483.978 162.116 479.695C158.739 471.124 155.188 462.599 152.296 453.842C151.941 452.783 151.604 451.718 151.272 450.653C143.337 425.07 135.345 399.07 135.188 372.326C135.16 366.905 135.447 361.439 134.512 356.097C132.852 346.659 127.529 338.347 123.088 329.849C111.087 306.785 105.173 281.031 105.907 255.034C106.245 243.713 107.984 232.06 113.927 222.424" fill="#003566"/>
<path d="M137.174 221.995C145.124 241.842 152.155 262.015 158.267 282.515C164.517 303.398 169.875 324.52 174.339 345.881C178.804 367.241 182.48 388.802 185.369 410.565C186.761 421.147 187.954 431.75 188.948 442.374C189.888 452.433 190.479 462.503 191.233 472.572C191.869 481.025 192.798 489.72 196.298 497.513C197.908 501.145 200.201 504.434 203.051 507.199C203.8 507.912 204.585 508.586 205.404 509.217C206.36 509.955 207.486 510.749 206.389 511.972C205.477 512.987 203.231 513.257 201.937 513.556C194.728 515.246 187.125 514.378 179.837 513.804C177.502 513.618 175.335 513.561 173.585 511.792C172.261 510.317 171.328 508.532 170.872 506.602C170.248 504.393 169.989 502.094 169.561 499.84C169.05 497.03 168.317 494.266 167.366 491.574C163.427 480.597 158.728 469.918 154.783 458.941C150.939 448.235 147.76 437.269 144.721 426.331C141.682 415.394 139.093 404.355 137.478 393.153C136.645 387.363 136.134 381.531 135.947 375.684C135.779 369.998 136.189 364.273 135.565 358.61C134.439 348.168 128.873 339.237 124.09 330.136C113.984 310.945 108.099 289.81 106.83 268.151C106.228 257.766 106.374 247.003 108.867 236.849C110.035 231.904 111.958 227.17 114.568 222.812C115.063 222.001 113.786 221.257 113.29 222.068C107.894 230.932 105.913 241.301 105.322 251.545C104.741 262.302 105.324 273.09 107.061 283.721C109.652 299.868 114.811 315.494 122.34 330.007C124.838 334.808 127.596 339.479 129.875 344.399C132.328 349.471 133.831 354.95 134.31 360.565C134.721 366.426 134.343 372.32 134.619 378.186C135.182 389.631 137.039 400.98 139.617 412.131C142.256 423.57 145.621 434.818 149.082 446.026C152.543 457.234 156.758 468.149 161.103 479.069C163.303 484.597 165.785 490.187 167.293 495.974C168.464 500.449 168.554 505.34 170.473 509.594C171.154 511.232 172.257 512.66 173.669 513.73C175.358 514.948 177.305 515.049 179.331 515.207C183.794 515.567 188.273 515.945 192.758 515.945C195.782 515.976 198.8 515.685 201.763 515.077C204.115 514.57 208.853 513.849 208.246 510.406C208.123 509.806 207.779 509.275 207.283 508.918C206.36 508.152 205.376 507.487 204.469 506.664C202.842 505.177 201.397 503.501 200.164 501.671C197.856 498.133 196.16 494.229 195.15 490.125C192.73 480.974 192.505 471.378 191.886 461.95C191.177 451.244 190.198 440.566 189.027 429.91C186.641 407.967 183.409 386.139 179.331 364.425C175.204 342.528 170.207 320.824 164.339 299.313C158.516 278.039 151.699 257.075 143.888 236.421C142.012 231.507 140.067 226.623 138.052 221.77C137.833 221.24 136.955 221.465 137.174 222.012V221.995Z" fill="#003566"/>
<path d="M113.651 227.127C119.984 258.038 123.131 289.519 123.043 321.074C123.009 333.797 122.216 347.609 115.463 358.783C108.94 369.58 96.278 375.237 83.9478 375.305C63.9191 375.412 48.6288 360.344 37.1033 345.575C30.0619 336.438 23.5855 326.878 17.7105 316.949C12.2404 307.814 7.84525 298.534 0.973896 290.346C-4.42301 283.933 -10.1182 280.152 -17.8224 279.668C-18.707 279.603 -19.4776 279.04 -19.8088 278.216C-20.1401 277.392 -19.9742 276.451 -19.3813 275.791C-17.0439 273.161 -14.7047 270.546 -12.3636 267.947C-7.77709 262.825 -1.43474 257.212 5.08207 259.449C6.98421 260.109 8.59935 261.393 10.1469 262.65L77.1159 316.301C71.7527 300.889 66.7892 285.06 66.2939 268.764C65.7987 252.467 70.2333 235.382 81.4886 223.594" fill="#003566"/>
<path d="M113.229 227.245C116.335 243.023 118.727 258.897 120.269 274.889C121.805 290.694 122.509 306.569 122.38 322.448C122.318 329.357 122.002 336.31 120.612 343.095C119.279 349.603 116.938 356.207 112.768 361.465C105.08 371.163 91.9902 375.586 79.8964 374.392C67.2962 373.146 56.5192 365.59 47.8189 356.81C43.3125 352.165 39.1236 347.222 35.2805 342.013C30.6433 335.814 26.31 329.447 22.2075 322.905C18.2175 316.548 14.6158 309.978 10.8228 303.498C7.24359 297.395 3.32113 291.213 -1.82254 286.3C-6.13894 282.18 -11.3895 279.459 -17.383 278.974C-17.9392 279.007 -18.4834 278.803 -18.8799 278.411C-19.2753 277.955 -19.3898 277.319 -19.1782 276.754C-18.8912 276.033 -18.1033 275.402 -17.5968 274.832L-15.4752 272.483C-13.0215 269.733 -10.6467 266.876 -7.89476 264.425C-5.46925 262.272 -2.58227 260.227 0.698645 259.731C2.30154 259.485 3.94104 259.694 5.43149 260.334C7.04512 261.125 8.54441 262.132 9.88858 263.326L29.0507 278.681L67.3693 309.398L76.5986 316.791C77.0826 317.185 78.0168 316.841 77.7636 316.114C73.2277 303.058 68.9507 289.731 67.4875 275.926C66.2213 263.985 67.1892 251.695 71.6576 240.476C74.0315 234.407 77.5424 228.849 82.0012 224.101C82.6315 223.436 81.6298 222.41 80.9938 223.092C72.8506 231.657 68.1966 242.955 66.4295 254.546C64.4429 267.62 66.1143 280.879 69.3277 293.614C71.2862 301.356 73.7961 308.947 76.4186 316.486L77.5835 315.805L38.3082 284.339L18.6733 268.606C15.4712 266.042 12.3197 263.376 9.03318 260.92C6.32066 258.891 3.2761 257.809 -0.111736 258.48C-3.40391 259.133 -6.30214 261.173 -8.78393 263.348C-11.5978 265.816 -13.9895 268.702 -16.4769 271.474L-18.486 273.728C-19.1738 274.383 -19.7889 275.11 -20.3206 275.897C-20.9101 277.003 -20.7769 278.355 -19.9829 279.324C-19.0656 280.451 -17.7713 280.372 -16.46 280.529C-14.9273 280.711 -13.4182 281.055 -11.9579 281.555C-5.76752 283.662 -1.09095 288.644 2.74711 293.772C7.24922 299.824 10.8284 306.507 14.5652 313.049C22.0893 326.235 30.542 339.111 40.3172 350.742C48.4379 360.406 58.1794 369.54 70.3069 373.755C82.1644 377.874 95.9859 376.381 106.42 369.247C111.71 365.596 115.872 360.534 118.435 354.635C121.299 348.223 122.633 341.258 123.235 334.287C123.876 326.849 123.798 319.349 123.64 311.894C123.486 303.689 123.111 295.494 122.515 287.308C121.341 270.992 119.287 254.751 116.364 238.656C115.662 234.768 114.898 230.891 114.073 227.025C113.961 226.462 113.128 226.71 113.235 227.256L113.229 227.245Z" fill="#003566"/>
<path d="M106.746 145.014C99.1825 145.628 91.512 146.704 84.6407 149.905C77.7693 153.106 71.7534 158.837 69.688 166.162C68.8045 169.335 68.6976 172.665 68.7313 175.956C68.8055 183.832 69.6537 191.682 71.2638 199.392C72.5075 205.376 74.2239 211.439 73.4529 217.503C73.1794 218.907 73.053 220.337 73.0759 221.768C73.2897 224.332 74.9105 226.62 76.9533 228.175C78.9962 229.731 81.4554 230.66 83.8697 231.489C95.6837 235.518 108.055 237.67 120.534 237.867C123.573 237.913 126.651 237.839 129.589 237.05C134.147 235.828 138.12 232.926 141.345 229.471C143.36 227.307 145.205 224.698 145.284 221.74C145.329 220.05 144.766 218.359 144.586 216.669C144.266 213.654 145.149 210.65 145.914 207.72C147.569 201.584 148.728 195.38 150.146 189.192C151.467 183.723 152.352 178.157 152.791 172.547C153.107 167.56 152.381 162.28 149.415 158.251C146.899 154.819 143.016 152.616 139.021 151.15C131.328 148.333 122.926 146.023 114.698 145.718C110.573 145.561 114.698 145.718 110.691 144.727" fill="white"/>
<path d="M149.881 157.97C148.226 155.568 146.005 153.612 143.415 152.273C140.56 150.85 137.582 149.688 134.518 148.802C127.991 146.604 121.196 145.306 114.32 144.942C113.988 144.942 113.656 144.942 113.324 144.886H113.093C112.925 144.886 112.941 144.886 112.986 144.886C112.66 145.01 113.549 145.449 113.414 145.759C113.456 145.601 113.456 145.434 113.414 145.275C113.15 144.379 111.653 144.114 110.927 143.894C109.801 143.55 109.334 145.393 110.454 145.613C110.966 145.709 111.551 145.861 112.002 145.99C112.165 146.035 112.092 146.137 112.047 145.99C111.995 145.844 111.931 145.703 111.855 145.568C111.793 146.317 112.609 146.436 113.155 146.452C116.271 146.515 119.378 146.801 122.452 147.309C125.803 147.9 129.113 148.702 132.362 149.709C135.43 150.569 138.43 151.654 141.339 152.955C144.289 154.269 146.915 156.216 149.032 158.658C149.42 159.137 150.236 158.506 149.887 157.993L149.881 157.97Z" fill="#003566"/>
<path d="M106.746 144.469C99.4299 145.004 91.9958 145.923 85.1976 148.842C79.5249 151.281 74.325 155.35 71.1735 160.731C67.4649 167.076 67.7969 174.543 68.1796 181.637C68.3934 185.424 68.7799 189.196 69.3389 192.952C69.9016 196.609 70.6839 200.205 71.4717 203.811C72.299 207.603 73.0306 211.452 72.8843 215.351C72.8111 217.318 72.2765 219.262 72.3215 221.229C72.3594 222.83 72.8385 224.39 73.7059 225.737C75.563 228.673 78.6582 230.346 81.8154 231.546C85.3583 232.864 88.9733 233.977 92.6429 234.882C100.125 236.798 107.775 237.987 115.486 238.432C119.295 238.652 123.19 238.844 126.983 238.331C130.416 237.856 133.692 236.587 136.55 234.623C139.331 232.761 141.771 230.433 143.764 227.743C144.72 226.482 145.417 225.043 145.813 223.511C146.224 221.73 145.942 220.006 145.605 218.242C145.22 216.299 145.207 214.301 145.565 212.354C145.909 210.494 146.454 208.674 146.933 206.843C147.957 202.938 148.824 198.993 149.707 195.054C150.135 193.178 150.557 191.296 151.007 189.419C151.277 188.292 149.538 187.83 149.291 188.946C148.469 192.716 147.732 196.502 146.916 200.272C146.505 202.154 146.077 204.036 145.61 205.907C145.143 207.778 144.592 209.564 144.209 211.424C143.808 213.182 143.688 214.993 143.854 216.788C144.057 218.518 144.625 220.226 144.53 221.978C144.35 225.23 141.896 227.963 139.684 230.121C137.371 232.461 134.624 234.327 131.597 235.615C128.221 236.962 124.659 237.181 121.085 237.148C113.586 237.061 106.112 236.258 98.7658 234.747C95.1923 234.02 91.6468 233.124 88.1577 232.07C84.7811 231.051 81.1457 230.059 78.163 228.126C75.3492 226.289 73.5427 223.466 73.8747 220.051C74.0548 218.22 74.3981 216.433 74.4375 214.579C74.4378 212.723 74.2967 210.869 74.0154 209.035C73.4527 205.315 72.5241 201.709 71.7644 198.001C71.0741 194.553 70.5488 191.076 70.1886 187.571C69.8116 183.902 69.6259 180.212 69.5302 176.526C69.4345 172.841 69.5302 169.105 70.7008 165.572C72.541 159.937 76.8912 155.372 81.8491 152.307C87.7806 148.667 94.7139 147.027 101.546 146.154C103.285 145.928 105.029 145.748 106.774 145.59C107.472 145.522 107.483 144.463 106.774 144.491L106.746 144.469Z" fill="#003566"/>
<path d="M163.596 235.399C167.138 232.223 171.34 229.874 175.898 228.519C177.058 228.175 178.357 227.91 179.432 228.463C180.507 229.015 181.048 230.21 181.486 231.337C181.651 231.64 181.689 231.996 181.593 232.328C181.38 232.636 181.047 232.841 180.676 232.892L176.483 234.098C179.342 233.134 182.421 232.571 185.386 233.14C188.352 233.709 191.189 235.551 192.365 238.335C192.601 238.899 192.691 239.688 192.151 239.958C191.897 240.055 191.62 240.071 191.357 240.003C189.42 239.693 187.51 239.232 185.645 238.623C187.84 239.186 190.176 239.823 191.678 241.513C192.019 241.852 192.22 242.307 192.241 242.787C192.166 243.452 191.67 243.992 191.014 244.122C190.372 244.236 189.712 244.193 189.089 243.998C187.679 243.66 186.3 243.206 184.964 242.64L189.911 245.204C190.265 245.358 190.581 245.589 190.834 245.88C191.397 246.658 190.834 247.864 189.95 248.242C189.019 248.539 188.009 248.458 187.137 248.016C186.275 247.575 185.367 247.231 184.43 246.991C185.832 247.759 187.137 248.691 188.318 249.769C188.674 250.046 188.951 250.411 189.123 250.828C189.261 251.513 189.09 252.225 188.656 252.772C188.043 253.691 187.212 254.442 186.236 254.958C185.804 255.247 185.271 255.339 184.767 255.212C184.194 254.939 183.862 254.326 183.946 253.696C184.042 253.082 184.269 252.496 184.61 251.978C184.245 252.411 183.735 252.697 183.175 252.783C176.692 254.476 169.808 253.617 163.939 250.383C163.605 250.222 163.307 249.996 163.062 249.718C162.443 248.912 162.746 247.537 161.936 246.951" fill="white"/>
<path d="M188.712 250.975C188.892 252.271 187.249 253.55 186.287 254.153C185.87 254.412 185.06 254.925 184.756 254.277C184.452 253.629 184.947 252.891 185.246 252.355C185.617 251.691 184.655 250.862 184.12 251.505C183.495 252.288 182.055 252.384 181.132 252.564C180.097 252.765 179.05 252.893 177.997 252.947C175.786 253.084 173.566 252.912 171.402 252.434C169.277 251.971 167.218 251.244 165.273 250.271C164.811 250.06 164.367 249.811 163.945 249.527C163.612 249.243 163.409 248.836 163.382 248.4C163.213 247.554 163.056 246.794 162.29 246.298C161.525 245.802 160.777 246.89 161.373 247.492C161.97 248.095 161.835 249.104 162.217 249.825C162.735 250.795 163.906 251.24 164.84 251.679C166.987 252.694 169.257 253.425 171.593 253.854C173.93 254.289 176.313 254.422 178.684 254.249C179.859 254.163 181.027 253.996 182.179 253.747C183.192 253.533 184.401 253.336 185.082 252.485L183.957 251.634C183.394 252.603 182.921 253.697 183.394 254.795C183.82 255.797 184.976 256.264 185.977 255.838C187.795 255.201 190.237 252.823 189.517 250.716C189.441 250.484 189.197 250.353 188.963 250.418C188.728 250.482 188.586 250.72 188.639 250.958L188.712 250.975Z" fill="#003566"/>
<path d="M190.423 246.022C190.506 246.457 190.407 246.908 190.148 247.267C189.768 247.659 189.224 247.844 188.684 247.763C187.989 247.644 187.32 247.401 186.709 247.048C185.972 246.715 185.088 246.14 184.255 246.281C183.968 246.371 183.758 246.62 183.72 246.919C183.681 247.219 183.82 247.513 184.075 247.673C184.32 247.785 184.58 247.861 184.846 247.898C185.079 247.958 185.308 248.029 185.533 248.113C185.955 248.27 186.343 248.496 186.771 248.631C187.675 249.012 188.658 249.168 189.636 249.087C190.464 248.953 191.176 248.423 191.543 247.667C191.979 246.941 191.783 246.001 191.093 245.509C190.933 245.422 190.737 245.437 190.592 245.548C190.447 245.659 190.381 245.845 190.423 246.022Z" fill="#003566"/>
<path d="M191.239 241.671C191.408 242.127 191.802 242.753 191.386 243.176C190.969 243.598 190.187 243.559 189.613 243.457C188.849 243.278 188.097 243.05 187.362 242.775C187.012 242.667 186.669 242.541 186.332 242.398C185.916 242.171 185.468 242.008 185.004 241.913C184.696 241.909 184.415 242.091 184.292 242.374C184.169 242.657 184.228 242.986 184.441 243.209C184.908 243.521 185.429 243.743 185.977 243.863C186.473 244.015 186.962 244.224 187.469 244.336C188.442 244.622 189.441 244.811 190.451 244.9C191.388 244.938 192.27 244.454 192.742 243.643C192.968 243.2 193.005 242.684 192.845 242.212C192.685 241.741 192.341 241.355 191.892 241.141C191.571 240.967 191.082 241.26 191.222 241.654L191.239 241.671Z" fill="#003566"/>
<path d="M191.915 238.357V239.017C191.915 239.017 191.887 239.135 191.881 239.169C191.875 239.203 191.881 239.445 191.853 239.327C191.853 239.439 191.802 239.36 191.887 239.327C191.632 239.361 191.373 239.342 191.127 239.27L190.001 239.079C189.275 238.943 188.606 238.712 187.897 238.515C187.548 238.425 187.199 238.329 186.856 238.205C186.484 238.03 186.087 237.916 185.679 237.867C185.342 237.874 185.05 238.102 184.961 238.428C184.873 238.754 185.009 239.099 185.297 239.276C185.739 239.501 186.217 239.646 186.709 239.704C187.137 239.834 187.571 239.941 188.009 240.025C188.921 240.155 189.799 240.425 190.699 240.589C191.6 240.752 192.562 240.927 193.068 240.054C193.434 239.373 193.293 238.531 192.725 238.008C192.593 237.884 192.401 237.849 192.234 237.918C192.066 237.987 191.955 238.148 191.949 238.329L191.915 238.357Z" fill="#003566"/>
<path d="M163.827 235.793C165.6 234.571 167.339 233.274 169.196 232.181C171.086 231.073 173.085 230.163 175.162 229.465C176.106 229.061 177.118 228.841 178.144 228.817C179.27 228.885 179.889 229.623 180.367 230.581C180.582 230.932 180.746 231.311 180.857 231.708C180.919 232.08 180.857 232.08 180.485 232.187C180.221 232.271 179.956 232.333 179.692 232.401C178.47 232.658 177.27 233.009 176.101 233.449C175.246 233.832 175.916 234.942 176.664 234.835C177.823 234.593 178.961 234.261 180.069 233.844C180.868 233.596 181.948 233.41 182.269 232.508C182.562 231.691 182.044 230.733 181.706 230.012C181.351 229.233 180.798 228.561 180.103 228.062C178.454 226.935 176.276 227.634 174.559 228.209C172.558 228.875 170.627 229.733 168.791 230.773C166.721 231.88 164.852 233.33 163.265 235.061C162.944 235.421 163.366 236.086 163.827 235.776V235.793Z" fill="#003566"/>
<path d="M133.505 305.749C131.989 305.363 130.38 305.746 129.2 306.775C127.923 307.888 127.068 309.409 126.78 311.08C126.358 313.052 126.431 315.126 126.392 317.132L126.257 323.584L125.987 336.758C125.897 341.075 125.706 345.408 125.751 349.719C125.784 353.472 126.403 357.14 128.531 360.302C130.395 362.95 132.817 365.157 135.627 366.765C138.711 368.636 142.071 370.095 145.335 371.622C148.873 373.376 152.58 374.764 156.399 375.764C159.387 376.474 162.73 377.054 165.611 375.674C167.778 374.637 169.145 372.586 169.984 370.399C170.817 367.952 171.315 365.402 171.464 362.82C171.802 359.22 172.1 355.602 172.297 351.99C172.494 348.462 172.544 344.929 172.494 341.402C172.466 339.542 172.533 337.694 172.544 335.834C172.622 334.109 172.356 332.385 171.762 330.763C170.575 327.872 167.789 326.463 165.009 325.517C162.758 324.745 160.417 324.063 158.115 323.37C153.45 321.967 148.723 320.625 144.305 318.529C140.366 316.67 135.931 313.965 134.462 309.609C134.126 308.599 133.959 307.54 133.967 306.476C133.935 306.128 133.643 305.861 133.294 305.861C132.945 305.861 132.654 306.128 132.622 306.476C132.532 316.377 144.35 320.558 152.06 323.026C154.142 323.691 156.247 324.294 158.34 324.931C160.591 325.618 162.921 326.266 165.15 327.066C166.467 327.487 167.699 328.142 168.785 328.999C169.972 330.051 170.741 331.495 170.952 333.068C171.158 334.75 171.195 336.449 171.064 338.139C171.002 340.027 171.064 341.92 171.064 343.814C171.031 350.496 170.636 357.172 169.882 363.812C169.421 368.061 168.335 373.786 163.411 374.845C161.861 375.096 160.279 375.052 158.745 374.716C156.927 374.389 155.136 373.926 153.388 373.33C149.789 372.036 146.274 370.519 142.864 368.788C137.169 366.049 130.759 363.074 128.322 356.757C126.899 353.077 127.197 349.026 127.276 345.166L127.484 332.549L127.692 319.932C127.726 317.932 127.726 315.932 127.799 313.937C127.867 312.111 128.035 310.094 129.127 308.555C130.044 307.271 131.615 306.301 133.224 306.696C133.477 306.744 133.725 306.59 133.795 306.342C133.864 306.093 133.73 305.833 133.489 305.743L133.505 305.749Z" fill="#003566"/>
<path d="M138.238 334.116C136.712 335.144 135.665 336.745 135.334 338.557C135.019 340.355 135.121 342.202 135.632 343.955C135.976 345.572 136.754 347.065 137.883 348.271C139.06 349.398 140.849 350.035 142.386 349.477C149.527 346.891 143.888 331.225 139.347 334.567" fill="#6D7DB6"/>
<path d="M125.413 143.438L123.162 153.61C123.127 153.839 123.047 154.06 122.925 154.258C122.616 154.578 122.188 154.755 121.743 154.748C116.141 155.331 110.549 153.546 106.318 149.823C105.682 149.336 105.207 148.669 104.956 147.907C104.845 147.105 104.952 146.287 105.266 145.54C107.219 139.366 108.585 133.021 109.346 126.59" fill="white"/>
<path d="M138.863 112.589C138.677 110.949 139.06 99.2793 126.544 98.5975C121.819 98.3912 117.171 99.8398 113.398 102.694C112.215 103.562 111.087 104.503 110.021 105.512C98.4956 116.494 109.402 141.886 125.908 143.103C136.24 143.863 138.851 133.732 139.504 125.352C139.847 121.121 139.341 116.838 138.863 112.589Z" fill="white"/>
<path d="M125.891 143.765C128.534 144.025 131.185 143.364 133.398 141.895C135.296 140.474 136.777 138.569 137.686 136.378C140.134 130.861 140.5 124.358 140.072 118.425C139.904 116.081 139.583 113.753 139.414 111.409C139.33 110.025 139.11 108.653 138.755 107.313C137.63 103.317 134.968 100.128 131.001 98.7699C127.506 97.6727 123.765 97.6295 120.246 98.6459C116.127 99.7729 112.632 102.179 109.554 105.087C108.957 105.65 109.852 106.546 110.448 105.983C113.122 103.453 116.132 101.277 119.672 100.139C122.74 99.1095 126.026 98.915 129.194 99.5757C133.026 100.363 136.131 103.166 137.309 106.901C137.721 108.182 137.986 109.505 138.097 110.846C138.243 112.446 138.395 114.041 138.553 115.641C139.166 121.676 139.206 127.92 137.332 133.758C136.555 136.169 135.373 138.547 133.449 140.249C131.35 142.097 128.62 142.678 125.885 142.503C125.075 142.447 125.075 143.715 125.885 143.771L125.891 143.765Z" fill="#003566"/>
<path d="M129.656 120.022C129.769 120.839 129.848 121.656 129.943 122.479C129.972 122.815 130.038 123.148 130.14 123.47C130.273 123.821 130.508 124.124 130.816 124.338C131.216 124.627 131.393 125.136 131.26 125.612C131.069 126.175 130.489 126.243 130.135 126.682C129.817 127.017 129.817 127.542 130.135 127.877C130.465 128.203 130.997 128.203 131.328 127.877C131.463 127.708 131.862 127.522 132.087 127.313C133.01 126.448 133.222 125.063 132.6 123.961C132.386 123.618 132.107 123.321 131.778 123.087C131.62 122.974 131.429 122.895 131.277 122.783C131.125 122.67 131.142 122.664 131.097 122.49C130.872 121.594 130.697 120.681 130.534 119.779C130.456 119.556 130.219 119.43 129.99 119.493C129.762 119.555 129.621 119.784 129.668 120.016L129.656 120.022Z" fill="#003566"/>
<path d="M110.398 121.299L110.471 121.265L110.364 121.31C110.41 121.289 110.46 121.275 110.511 121.271H110.387C110.447 121.265 110.507 121.265 110.567 121.271H110.432C110.526 121.284 110.619 121.309 110.708 121.344L110.584 121.294C110.652 121.323 110.716 121.361 110.775 121.406L110.668 121.322C110.73 121.376 110.787 121.437 110.837 121.502L110.753 121.389C110.84 121.506 110.912 121.632 110.967 121.767L110.91 121.632C110.97 121.764 111.015 121.902 111.045 122.043V121.885C111.051 121.93 111.051 121.976 111.045 122.021V121.857V121.93L111.107 121.784V121.818L111.203 121.694L111.332 121.592L111.479 121.53H111.642H111.614L112.148 121.84V121.801L112.21 121.947C112.182 121.885 112.164 121.818 112.16 121.75V121.925C112.154 121.863 112.154 121.801 112.16 121.739V121.913C112.166 121.868 112.176 121.823 112.188 121.778C112.23 121.64 112.23 121.493 112.188 121.356C112.133 121.174 112.001 121.026 111.828 120.95C111.646 120.869 111.436 120.882 111.265 120.984C111.08 121.081 110.95 121.257 110.91 121.463C110.884 121.575 110.875 121.691 110.882 121.806C110.891 122.035 110.957 122.258 111.073 122.454C111.161 122.598 111.297 122.706 111.456 122.759C111.576 122.79 111.702 122.79 111.822 122.759C112 122.706 112.152 122.59 112.25 122.432C112.364 122.226 112.396 121.984 112.34 121.756C112.299 121.602 112.238 121.454 112.16 121.316C112.103 121.197 112.035 121.084 111.957 120.978C111.754 120.666 111.45 120.433 111.096 120.319C110.698 120.197 110.265 120.305 109.97 120.6C109.809 120.754 109.791 121.005 109.927 121.181C110.064 121.357 110.311 121.401 110.499 121.282L110.398 121.299Z" fill="#003566"/>
<path d="M124.957 143.311C124.387 145.098 123.932 146.92 123.595 148.765L123.032 151.233L122.723 152.608C122.638 152.969 122.621 153.662 122.329 153.916C122.036 154.169 121.592 154.096 121.305 154.119C120.928 154.152 120.545 154.175 120.179 154.186C119.417 154.209 118.654 154.186 117.894 154.119C116.397 153.981 114.92 153.671 113.493 153.194C112.062 152.726 110.691 152.09 109.408 151.301C108.192 150.557 106.768 149.65 105.93 148.484C105.495 147.797 105.424 146.94 105.739 146.19C105.986 145.345 106.262 144.5 106.509 143.66C107.016 141.936 107.477 140.195 107.888 138.448C108.8 134.599 109.453 130.7 110.027 126.789C110.083 126.524 109.986 126.25 109.776 126.079C109.567 125.909 109.279 125.87 109.032 125.979C108.784 126.088 108.619 126.327 108.603 126.597C108.208 130.563 107.527 134.496 106.566 138.363C106.104 140.283 105.587 142.189 105.013 144.083C104.529 145.694 103.713 147.464 104.714 149.041C105.553 150.366 107.061 151.38 108.35 152.214C109.746 153.111 111.244 153.84 112.812 154.383C114.384 154.926 116.014 155.284 117.669 155.448C119.25 155.675 120.858 155.633 122.424 155.324C123.376 155.082 123.696 154.417 123.888 153.521C124.124 152.394 124.355 151.318 124.591 150.214C125.064 147.993 125.717 145.706 125.88 143.452C125.925 142.888 125.131 142.888 124.957 143.328V143.311Z" fill="#003566"/>
<path d="M135.065 119.391C135.067 119.342 135.067 119.293 135.065 119.244C135.07 119.196 135.07 119.147 135.065 119.098C135.058 119.074 135.049 119.052 135.036 119.03C135.029 119.007 135.019 118.985 135.008 118.963C134.98 118.912 134.941 118.867 134.907 118.816H134.879C134.8 118.74 134.703 118.683 134.597 118.653C134.541 118.647 134.485 118.647 134.429 118.653C134.363 118.647 134.297 118.647 134.232 118.653C134.178 118.672 134.125 118.694 134.074 118.72C134.015 118.755 133.96 118.797 133.911 118.844C133.846 118.905 133.792 118.978 133.753 119.058C133.72 119.12 133.691 119.184 133.669 119.25V119.318C133.648 119.412 133.633 119.508 133.624 119.605V119.673C133.621 119.686 133.621 119.699 133.624 119.712C133.627 119.779 133.637 119.845 133.652 119.909C133.652 119.909 133.652 119.909 133.652 119.943C133.672 120.003 133.696 120.062 133.725 120.118V120.152C133.763 120.205 133.805 120.256 133.849 120.304C134.009 120.469 134.246 120.534 134.468 120.473C134.53 120.452 134.591 120.426 134.648 120.394L134.721 120.338L134.8 120.276C134.839 120.233 134.875 120.188 134.907 120.14C134.94 120.082 134.965 120.02 134.98 119.954C135.003 119.871 135.003 119.784 134.98 119.701C134.976 119.617 134.951 119.536 134.907 119.464C134.866 119.391 134.808 119.329 134.738 119.284C134.678 119.228 134.604 119.189 134.524 119.171H134.35C134.237 119.171 134.127 119.2 134.029 119.256L133.9 119.357C133.821 119.435 133.765 119.532 133.736 119.639L133.798 119.487L133.894 119.357L134.023 119.261L134.181 119.194L134.8 119.363L134.901 119.492C134.885 119.477 134.873 119.458 134.868 119.436L134.93 119.588C134.912 119.541 134.901 119.492 134.896 119.442V119.611C134.887 119.545 134.887 119.479 134.896 119.413V119.577C134.902 119.539 134.911 119.501 134.924 119.464L134.868 119.605C134.875 119.584 134.886 119.565 134.901 119.549L134.806 119.667C134.819 119.651 134.834 119.636 134.851 119.622L134.727 119.718H134.766L134.626 119.78H134.671H134.519C134.575 119.785 134.631 119.785 134.688 119.78C134.74 119.764 134.791 119.743 134.839 119.718L134.699 119.774H134.749H134.603H134.643H134.502L134.372 119.723H134.406L134.305 119.645L134.226 119.543L134.175 119.425L134.226 119.543C134.255 119.598 134.298 119.645 134.35 119.678C134.381 119.706 134.417 119.728 134.457 119.74C134.516 119.772 134.582 119.787 134.648 119.785H134.778L134.89 119.735C135 119.67 135.081 119.565 135.115 119.442L135.065 119.391Z" fill="#003566"/>
<path d="M124.473 119.391C124.479 119.342 124.479 119.293 124.473 119.244C124.482 119.196 124.482 119.146 124.473 119.098C124.467 119.074 124.457 119.052 124.445 119.03C124.437 119.007 124.428 118.985 124.417 118.963C124.389 118.912 124.349 118.867 124.316 118.816H124.288C124.208 118.74 124.112 118.683 124.006 118.653C123.95 118.647 123.894 118.647 123.837 118.653C123.772 118.647 123.706 118.647 123.64 118.653C123.586 118.672 123.534 118.694 123.483 118.72C123.424 118.755 123.369 118.797 123.32 118.844C123.254 118.907 123.199 118.979 123.156 119.058C123.127 119.121 123.1 119.185 123.078 119.25V119.318C123.057 119.412 123.042 119.508 123.033 119.605V119.673C123.029 119.686 123.029 119.699 123.033 119.712C123.036 119.779 123.046 119.845 123.061 119.909C123.061 119.909 123.061 119.909 123.061 119.943C123.081 120.003 123.105 120.062 123.134 120.118V120.152C123.172 120.205 123.213 120.256 123.258 120.304C123.418 120.469 123.655 120.534 123.877 120.473C123.939 120.452 123.999 120.426 124.057 120.394L124.13 120.338L124.209 120.276C124.247 120.233 124.283 120.188 124.316 120.14C124.349 120.082 124.374 120.02 124.389 119.954C124.411 119.871 124.411 119.784 124.389 119.701C124.384 119.617 124.359 119.536 124.316 119.464C124.275 119.391 124.217 119.329 124.147 119.284C124.087 119.228 124.013 119.189 123.933 119.171H123.759C123.646 119.171 123.536 119.2 123.438 119.256L123.308 119.357C123.23 119.435 123.174 119.532 123.145 119.639L123.207 119.487L123.303 119.357L123.432 119.261L123.584 119.194L124.203 119.363L124.304 119.492C124.288 119.477 124.276 119.458 124.271 119.436L124.333 119.588C124.316 119.54 124.303 119.491 124.293 119.442V119.611C124.287 119.545 124.287 119.479 124.293 119.413V119.577C124.299 119.539 124.309 119.501 124.321 119.464L124.265 119.605C124.272 119.584 124.284 119.565 124.299 119.549L124.203 119.667L124.248 119.622L124.124 119.718H124.164L124.023 119.78H124.068H123.916C123.972 119.785 124.029 119.785 124.085 119.78C124.136 119.765 124.185 119.744 124.231 119.718L124.096 119.774H124.147H124.001H124.04H123.899L123.77 119.723H123.804L123.702 119.645L123.624 119.543L123.573 119.425L123.624 119.543C123.652 119.598 123.695 119.645 123.747 119.678C123.778 119.706 123.815 119.728 123.854 119.74C123.913 119.772 123.979 119.787 124.046 119.785H124.175L124.288 119.735C124.398 119.67 124.479 119.565 124.513 119.442L124.473 119.391Z" fill="#003566"/>
<path d="M128.182 130.194C126.24 130.07 124.535 128.943 122.762 128.148C122.385 127.979 121.907 127.844 121.603 128.115C121.449 128.287 121.357 128.504 121.339 128.735C121.183 129.563 121.273 130.419 121.597 131.197C121.936 131.977 122.626 132.549 123.455 132.735C124.299 132.904 125.153 132.496 125.554 131.732C125.807 131.169 125.745 130.538 125.964 129.974" fill="#003566"/>
<path d="M128.299 129.762C127.002 129.499 125.763 128.999 124.647 128.285C123.612 127.722 121.788 126.375 120.843 127.778C120.517 128.403 120.39 129.113 120.477 129.812C120.505 130.549 120.713 131.267 121.085 131.903C121.751 133.072 123.075 133.699 124.4 133.475C125.089 133.337 125.695 132.932 126.088 132.348C126.516 131.694 126.476 130.894 126.651 130.162C126.74 129.817 126.562 129.459 126.234 129.322C125.908 129.18 125.528 129.306 125.351 129.615C125.178 130.138 125.044 130.673 124.951 131.216C124.866 131.521 124.643 131.769 124.349 131.886C123.644 132.14 122.859 131.844 122.497 131.187C122.243 130.791 122.097 130.334 122.075 129.863C122.053 129.601 122.053 129.337 122.075 129.074C122.075 128.956 122.255 128.511 122.075 128.759H122.025C122.025 128.809 122.165 128.759 122.092 128.759C122.19 128.774 122.286 128.799 122.379 128.832C122.616 128.911 122.852 129.012 123.083 129.114C123.589 129.333 124.09 129.564 124.596 129.779C125.723 130.307 126.944 130.602 128.187 130.646C128.677 130.646 128.817 129.835 128.305 129.762H128.299Z" fill="#003566"/>
<path d="M123.162 115.642C123.365 115.575 123.573 115.529 123.775 115.467L124.068 115.394L124.237 115.36C124.237 115.36 124.423 115.36 124.327 115.36C124.231 115.36 124.406 115.36 124.423 115.36H124.591H124.89H125.188H125.278C125.177 115.36 125.166 115.36 125.233 115.36C125.332 115.366 125.432 115.366 125.531 115.36C125.847 115.361 126.115 115.128 126.158 114.815C126.2 114.501 126.005 114.205 125.7 114.121C125.435 114.058 125.16 114.042 124.89 114.076C124.622 114.093 124.357 114.132 124.096 114.194C123.874 114.251 123.656 114.322 123.443 114.408C123.305 114.461 123.173 114.529 123.05 114.611L122.723 114.87C122.573 115.019 122.542 115.251 122.65 115.434C122.757 115.608 122.964 115.692 123.162 115.642Z" fill="#003566"/>
<path d="M134.26 115.444H134.288H134.153C134.375 115.419 134.6 115.419 134.822 115.444H134.67C134.836 115.467 134.999 115.511 135.154 115.574L135.014 115.518C135.129 115.564 135.239 115.625 135.34 115.698C135.487 115.78 135.661 115.802 135.824 115.76C135.981 115.717 136.115 115.614 136.195 115.473C136.363 115.173 136.264 114.794 135.97 114.616C135.643 114.441 135.282 114.34 134.912 114.317C134.724 114.312 134.535 114.326 134.35 114.357C134.177 114.397 134.011 114.46 133.854 114.543C133.642 114.67 133.555 114.934 133.652 115.163C133.694 115.26 133.764 115.343 133.854 115.399L133.973 115.45C134.059 115.473 134.15 115.473 134.237 115.45L134.26 115.444Z" fill="#003566"/>
<path d="M121.49 130.66C121.635 130.886 121.872 131.037 122.138 131.071L122.413 131.167C122.47 131.167 122.318 131.122 122.413 131.167L122.492 131.206L122.622 131.274C122.706 131.321 122.786 131.374 122.864 131.432C122.937 131.483 122.802 131.375 122.864 131.432L122.92 131.477L123.027 131.578C123.104 131.648 123.175 131.723 123.241 131.804C123.269 131.838 123.28 131.883 123.241 131.804L123.28 131.86C123.331 131.933 123.387 132.001 123.443 132.069C123.537 132.163 123.665 132.216 123.798 132.215C123.91 132.217 124.02 132.179 124.107 132.108C124.307 131.953 124.363 131.674 124.237 131.454C124.12 131.252 123.97 131.071 123.792 130.919C123.621 130.761 123.432 130.623 123.229 130.508C123.032 130.395 122.823 130.306 122.605 130.243C122.474 130.207 122.34 130.183 122.205 130.17H122.143C122.171 130.17 122.256 130.17 122.177 130.17C122.098 130.17 122.177 130.17 122.205 130.17C122.138 130.136 122.273 130.243 122.205 130.17C122.055 130.01 121.808 129.99 121.634 130.124C121.46 130.257 121.415 130.501 121.53 130.688L121.49 130.66Z" fill="#6D7DB6"/>
<path d="M110.178 125.023C108.907 124.302 107.888 122.251 107.849 120.791C107.809 119.332 108.575 118.041 110.004 117.743C111.433 117.444 113.324 119.078 113.381 120.56C114.022 121.045 114.872 120.921 114.821 120.121C114.771 119.321 114.579 117.303 114.523 116.52C114.416 114.914 116.009 113.793 116.887 112.44C117.37 111.627 117.706 110.734 117.877 109.803C118.262 108.067 118.421 106.289 118.35 104.512C123.893 107.893 130.551 108.716 136.983 109.493C137.556 109.634 138.161 109.547 138.671 109.251C138.869 110.04 138.98 110.849 139.003 111.663C140.885 110.149 142.24 108.078 142.875 105.746C143.128 104.984 143.161 104.165 142.971 103.385C142.646 102.568 142.098 101.859 141.389 101.339C136.949 97.547 131.147 95.7607 125.396 94.7689C122.925 94.3463 120.128 94.0646 118.13 95.5804C116.133 97.0962 117.382 96.8652 116.971 97.0286C116.56 97.192 117.399 97.0286 116.971 97.0286C113.673 97.2596 109.492 98.7191 107.325 101.187C105.159 103.655 103.69 106.693 102.26 109.64C101.709 110.618 101.341 111.69 101.174 112.801C101.134 113.808 101.29 114.813 101.636 115.759C103.448 121.473 107.438 126.421 108.501 132.321C109.194 129.909 109.627 127.458 110.19 124.995" fill="#F59D31"/>
<path d="M110.398 124.647C108.839 123.576 107.584 120.584 108.997 118.955C109.734 118.088 110.837 118.161 111.692 118.803C112.067 119.081 112.373 119.442 112.587 119.857C112.812 120.313 112.683 120.787 113.15 121.102C113.808 121.559 114.838 121.581 115.277 120.798C115.643 120.128 115.384 119.023 115.333 118.302C115.266 117.445 114.996 116.408 115.333 115.591C115.75 114.639 116.616 113.901 117.219 113.084C117.989 111.91 118.484 110.577 118.665 109.184C118.948 107.638 119.069 106.067 119.025 104.496L117.967 105.105C121.204 106.979 124.739 108.279 128.418 108.948C130.247 109.325 132.098 109.601 133.95 109.849C134.867 109.973 135.79 110.092 136.713 110.204C137.503 110.392 138.336 110.279 139.048 109.889L137.923 109.438C138.095 110.163 138.195 110.902 138.221 111.647C138.223 111.955 138.407 112.233 138.69 112.355C138.973 112.477 139.301 112.42 139.527 112.21C141.75 110.402 143.657 107.499 143.837 104.569C143.939 102.935 143.016 101.752 141.828 100.721C140.639 99.7181 139.355 98.8331 137.996 98.0778C135.224 96.5826 132.264 95.47 129.194 94.77C126.319 94.0769 123.004 93.2204 120.061 93.8741C118.613 94.1684 117.317 94.967 116.403 96.1281C116.143 96.4458 116.091 96.8849 116.268 97.2551C116.301 97.3227 116.498 97.6101 116.6 97.6101C116.6 97.6101 116.673 96.3985 116.628 96.3478C116.808 96.2727 116.785 96.284 116.56 96.3816C116.52 96.3887 116.482 96.4084 116.453 96.438C116.196 96.6005 116.056 96.8977 116.095 97.1998C116.133 97.502 116.344 97.7543 116.633 97.8467C116.985 97.937 117.359 97.8414 117.624 97.5932C117.815 97.397 117.888 97.1149 117.818 96.8504C117.748 96.5858 117.543 96.3778 117.281 96.3027C116.715 96.2523 116.144 96.296 115.592 96.4323C114.906 96.5336 114.225 96.6747 113.555 96.855C112.181 97.2185 110.858 97.7523 109.616 98.444C106.954 99.9542 105.226 102.479 103.752 105.099C102.958 106.508 102.255 107.962 101.551 109.41C100.848 110.858 100.274 112.227 100.426 113.839C100.655 115.432 101.122 116.982 101.81 118.437C102.418 119.885 103.116 121.288 103.825 122.686C105.44 125.853 107.128 129.025 107.866 132.53C107.952 132.801 108.203 132.985 108.487 132.985C108.771 132.985 109.023 132.801 109.109 132.53C109.79 130.124 110.235 127.662 110.798 125.233C110.989 124.41 109.728 124.061 109.537 124.883C108.974 127.318 108.524 129.78 107.849 132.209H109.092C108.124 126.399 104.388 121.666 102.502 116.189C101.985 114.673 101.641 113.225 102.176 111.681C102.716 110.292 103.356 108.943 104.089 107.646C105.356 105.172 106.808 102.355 109.064 100.636C110.235 99.7777 111.537 99.1155 112.919 98.6751C113.593 98.4484 114.278 98.2602 114.973 98.1116C115.339 98.0327 115.71 97.9707 116.099 97.92L116.487 97.8749C116.56 97.8749 117.106 97.8749 116.892 97.8129L116.549 96.5225C116.663 96.3584 116.877 96.2972 117.061 96.376L117.247 97.7847C117.219 97.7847 117.303 97.7847 117.432 97.6946C117.608 97.5838 117.737 97.4139 117.798 97.2156C117.928 96.7648 117.635 96.6127 117.416 96.3084C117.478 96.3985 117.562 96.4098 117.629 96.5169C117.668 96.702 117.68 96.8919 117.663 97.0804C117.731 96.9951 117.805 96.9141 117.883 96.8381C118.368 96.3579 118.942 95.9754 119.571 95.7111C121.985 94.7193 124.974 95.4913 127.416 96.0041C130.186 96.5525 132.885 97.4106 135.463 98.5624C136.71 99.1342 137.909 99.805 139.048 100.568C140.084 101.273 141.429 102.124 142.053 103.245C142.802 104.581 141.969 106.485 141.322 107.719C140.619 109.057 139.65 110.236 138.474 111.185L139.774 111.748C139.741 110.867 139.621 109.991 139.414 109.134C139.351 108.904 139.184 108.716 138.963 108.628C138.742 108.539 138.492 108.56 138.289 108.683C137.669 109.094 136.679 108.79 135.992 108.683C135.182 108.587 134.377 108.491 133.567 108.379C131.817 108.142 130.067 107.871 128.339 107.505C124.95 106.857 121.688 105.662 118.682 103.966C118.464 103.843 118.197 103.844 117.98 103.969C117.762 104.094 117.627 104.324 117.624 104.575C117.714 106.447 117.534 108.322 117.089 110.142C116.906 110.948 116.574 111.713 116.11 112.396C115.705 112.96 115.215 113.467 114.793 114.025C114.046 114.967 113.722 116.177 113.898 117.366C113.955 118.014 114.022 118.657 114.09 119.299C114.133 119.551 114.159 119.805 114.168 120.06C114.168 120.19 114.208 120.257 114.129 120.302C114.05 120.347 113.735 120.161 113.656 120.111L113.943 120.618C113.707 117.913 110.117 115.969 108.141 118.291C106.324 120.426 107.674 124.235 109.965 125.469C110.171 125.591 110.437 125.521 110.558 125.315C110.68 125.108 110.61 124.841 110.404 124.72L110.398 124.647Z" fill="#F59D31"/>
<path d="M119.948 263.743C120.511 274.168 121.253 284.592 121.985 295C122.193 297.925 122.244 300.906 122.638 303.808C122.728 304.456 123.763 304.287 123.763 303.656C123.763 301.058 123.42 298.432 123.24 295.84L122.677 288.165C122.306 282.953 121.895 277.74 121.507 272.534C121.289 269.6 121.049 266.669 120.786 263.743C120.741 263.179 119.903 263.179 119.931 263.743H119.948Z" fill="#6D7DB6"/>
<path d="M11.9477 264.097L10.1413 262.649C8.57116 261.392 6.95602 260.108 5.07639 259.448C-1.4179 257.194 -7.75463 262.829 -12.3412 267.946C-14.6823 270.553 -17.0215 273.168 -19.3588 275.79C-19.9517 276.45 -20.1176 277.391 -19.7864 278.215C-19.4551 279.039 -18.6845 279.602 -17.8 279.667C-13.8971 279.88 -10.117 281.108 -6.83169 283.228C-3.28071 274.658 3.451 267.8 11.9477 264.097Z" fill="#6D7DB6"/>
<path d="M12.3925 263.647C9.35922 261.218 6.32592 258.389 2.21212 258.31C-1.51901 258.243 -4.92373 260.266 -7.73192 262.548C-10.9734 265.207 -13.7029 268.493 -16.5054 271.626C-17.2745 272.482 -18.0436 273.343 -18.8127 274.207C-19.4149 274.877 -20.1578 275.525 -20.456 276.399C-20.8705 277.674 -20.3934 279.071 -19.2855 279.825C-18.4807 280.388 -17.5184 280.304 -16.5955 280.388C-15.4722 280.518 -14.3604 280.733 -13.2695 281.031C-11.1122 281.632 -9.05625 282.551 -7.16916 283.758C-6.99907 283.853 -6.79487 283.866 -6.61423 283.793C-6.43359 283.719 -6.29611 283.567 -6.2406 283.38C-2.71799 274.974 3.91125 268.256 12.2631 264.627C13.0116 264.306 12.37 263.218 11.6272 263.534C4.91456 266.45 -0.755093 271.339 -4.63109 277.554C-5.71713 279.303 -6.65822 281.139 -7.44491 283.042L-6.51635 282.665C-9.48878 280.779 -12.8434 279.58 -16.3366 279.154C-17.0344 279.064 -17.9517 279.154 -18.5876 278.76C-19.0879 278.419 -19.3756 277.843 -19.3474 277.238C-19.308 276.455 -18.6889 275.942 -18.2218 275.396C-17.5184 274.601 -16.8093 273.812 -16.1002 273.018C-13.5396 270.149 -11.0353 267.157 -8.22153 264.565C-5.72286 262.311 -2.72895 260.136 0.687027 259.64C2.592 259.372 4.53248 259.728 6.219 260.654C8.12114 261.686 9.77004 263.168 11.4471 264.514C12.128 265.05 13.0284 264.159 12.3925 263.647Z" fill="#6D7DB6"/>
<path d="M205.831 513.198C207.396 512.686 208.302 510.426 206.957 509.479C202.898 506.63 199.635 502.787 197.48 498.316C187.919 499.605 178.238 499.721 168.649 498.66C169.032 500.542 169.347 502.447 169.685 504.368C170.428 508.64 172.364 513.897 177.389 514.309C192.634 515.531 197.992 515.762 205.831 513.198Z" fill="#E63946"/>
<path d="M206 513.809C207.368 513.345 208.278 512.048 208.251 510.603C208.207 509.921 207.852 509.297 207.289 508.912C206.484 508.309 205.691 507.723 204.936 507.064C202.07 504.513 199.727 501.427 198.037 497.98C197.926 497.775 197.707 497.652 197.474 497.665C187.913 498.943 178.233 499.058 168.644 498.008C168.205 497.958 167.957 498.448 168.03 498.809C169.28 504.951 169.719 514.299 177.8 514.953C184.424 515.516 191.233 516.283 197.879 515.567C200.641 515.259 203.363 514.662 206 513.786C206.771 513.539 206.439 512.31 205.662 512.564C201.022 514.032 196.165 514.697 191.301 514.53C187.8 514.463 184.3 514.198 180.811 513.927C179.004 513.786 176.945 513.899 175.284 513.082C174.023 512.418 172.982 511.4 172.291 510.152C170.231 506.664 170.039 502.347 169.252 498.471L168.644 499.276C178.233 500.326 187.913 500.21 197.474 498.933L196.911 498.617C198.356 501.545 200.256 504.225 202.539 506.557C203.713 507.743 204.986 508.827 206.343 509.797C206.881 510.052 207.127 510.681 206.906 511.234C206.72 511.842 206.266 512.332 205.674 512.564C204.903 512.868 205.229 514.091 206 513.809Z" fill="#E63946"/>
<path d="M197.508 502.701C198.005 502.514 198.483 502.282 198.938 502.008C199.34 501.745 199.808 501.602 200.288 501.597C200.739 501.631 200.964 501.957 201.144 502.341C201.234 502.527 201.301 502.724 201.38 502.904L201.538 503.304C201.538 503.372 201.588 503.434 201.617 503.501L201.65 503.592C201.65 503.693 201.678 503.71 201.678 503.642C201.678 503.575 201.735 503.451 201.74 503.496C201.746 503.541 201.673 503.496 201.69 503.496C201.707 503.496 201.538 503.546 201.47 503.558C201.223 503.62 200.975 503.665 200.733 503.749C200.25 503.916 199.795 504.153 199.382 504.454C198.955 504.775 198.397 505.186 198.285 505.738C198.25 506.035 198.339 506.332 198.531 506.561C198.723 506.789 199 506.928 199.298 506.944C200.659 507.134 202.043 507.065 203.378 506.742C203.721 506.627 203.914 506.263 203.818 505.914C203.722 505.565 203.371 505.352 203.018 505.429C201.898 505.712 200.735 505.777 199.591 505.62H199.45C199.548 505.682 199.59 505.804 199.551 505.913C199.551 506.189 199.551 506.11 199.647 505.992C199.808 505.811 199.988 505.647 200.181 505.502C200.551 505.223 200.969 505.015 201.414 504.888C201.894 504.828 202.339 504.605 202.675 504.256C203.068 503.727 202.765 503.169 202.539 502.639C202.112 501.659 201.673 500.599 200.452 500.498C199.858 500.478 199.272 500.63 198.763 500.937C198.273 501.277 197.762 501.586 197.233 501.862C196.992 501.932 196.854 502.184 196.923 502.425C196.954 502.542 197.032 502.641 197.139 502.699C197.245 502.757 197.371 502.768 197.486 502.729L197.508 502.701Z" fill="#003566"/>
<path d="M264.22 152.435C242.616 143.715 218.761 142.295 196.277 148.389C205.308 165.444 209.768 184.553 209.221 203.849C214.922 199.51 222.412 198.113 229.559 198.485C236.706 198.856 243.656 200.851 250.573 202.705C259.898 205.201 269.358 207.484 279.004 207.878C288.649 208.273 298.571 206.678 306.939 201.854C307.444 201.613 307.875 201.242 308.189 200.778C308.448 200.158 308.507 199.472 308.357 198.817C306.253 181.563 303.424 164.419 299.871 147.386C295.616 151.41 289.803 153.506 283.984 154.064C278.165 154.622 272.29 153.737 266.589 152.447" fill="#E63946"/>
<path d="M270.076 154.75C253.208 147.882 234.878 145.4 216.793 147.538C211.718 148.14 206.694 149.116 201.762 150.457C201.517 150.528 201.318 150.709 201.221 150.946C201.125 151.183 201.142 151.451 201.267 151.674C208.225 164.834 212.464 179.263 213.732 194.1C214.09 198.295 214.207 202.508 214.081 206.716C214.084 207.022 214.249 207.303 214.514 207.455C214.779 207.606 215.105 207.606 215.37 207.455C223.192 201.566 233.507 201.414 242.748 203.149C247.959 204.13 253.024 205.64 258.145 206.97C263.266 208.3 268.573 209.601 273.875 210.475C283.751 212.092 293.999 212.351 303.673 209.449C305.969 208.766 308.207 207.899 310.364 206.857C312.255 205.944 314.996 204.97 314.945 202.468C314.859 201.189 314.709 199.916 314.495 198.653C314.319 197.278 314.131 195.903 313.932 194.528C313.557 191.846 313.182 189.167 312.807 186.492C311.212 175.658 309.336 164.869 307.179 154.125C306.903 152.761 306.616 151.403 306.34 150.051C306.266 149.784 306.057 149.577 305.79 149.505C305.523 149.434 305.238 149.508 305.04 149.701C298.518 155.804 289.227 156.982 280.695 156.069C277.934 155.762 275.192 155.295 272.485 154.672C271.652 154.48 271.297 155.765 272.13 155.956C281.365 158.041 291.264 159.089 300.105 154.914C302.318 153.865 304.355 152.479 306.143 150.806L304.838 150.462C307.044 161.048 308.972 171.691 310.623 182.39C311.437 187.71 312.188 193.04 312.874 198.382C313.037 199.661 313.262 200.952 313.336 202.242C313.435 202.75 313.26 203.273 312.874 203.617C312.406 203.962 311.907 204.262 311.383 204.513C309.255 205.648 307.031 206.591 304.737 207.331C295.355 210.424 285.226 210.424 275.546 208.953C270.329 208.114 265.158 207.008 260.053 205.64C254.988 204.333 249.923 202.823 244.785 201.769C235.685 199.887 225.651 199.475 217.294 204.141C216.315 204.681 215.375 205.29 214.48 205.961L215.769 206.699C216.181 191.59 213.551 176.552 208.037 162.482C206.468 158.498 204.677 154.606 202.674 150.823L202.178 152.04C219.558 147.288 237.855 147.009 255.371 151.229C260.269 152.416 265.075 153.959 269.749 155.844C270.436 156.12 270.729 155.01 270.053 154.717L270.076 154.75Z" fill="#003566"/>
<path d="M264.388 151.883C247.52 145.015 229.19 142.533 211.106 144.67C206.031 145.273 201.007 146.249 196.074 147.589C195.829 147.661 195.63 147.841 195.534 148.078C195.437 148.315 195.454 148.583 195.579 148.807C202.537 161.967 206.777 176.396 208.044 191.232C208.403 195.428 208.519 199.64 208.393 203.849C208.397 204.155 208.562 204.436 208.827 204.587C209.092 204.739 209.417 204.739 209.682 204.587C217.505 198.699 227.82 198.547 237.061 200.282C242.272 201.263 247.337 202.773 252.458 204.103C257.579 205.433 262.886 206.734 268.187 207.608C278.064 209.225 288.312 209.484 297.985 206.582C300.282 205.899 302.519 205.032 304.677 203.99C306.568 203.077 309.308 202.102 309.258 199.6C309.172 198.322 309.021 197.049 308.807 195.785C308.631 194.411 308.443 193.036 308.245 191.661C307.869 188.978 307.494 186.3 307.119 183.625C305.525 172.791 303.649 162.002 301.491 151.258C301.216 149.894 300.929 148.536 300.653 147.184C300.579 146.917 300.369 146.71 300.102 146.638C299.835 146.566 299.551 146.641 299.353 146.834C292.83 152.937 283.539 154.115 275.008 153.202C272.246 152.894 269.505 152.428 266.797 151.804C265.964 151.613 265.61 152.898 266.442 153.089C275.677 155.174 285.576 156.222 294.417 152.047C296.63 150.998 298.667 149.612 300.456 147.939L299.15 147.595C301.356 158.181 303.285 168.824 304.936 179.523C305.75 184.842 306.5 190.173 307.187 195.515C307.35 196.794 307.575 198.085 307.648 199.375C307.748 199.883 307.572 200.405 307.187 200.75C306.719 201.095 306.219 201.395 305.695 201.646C303.568 202.781 301.344 203.724 299.049 204.463C289.668 207.557 279.538 207.557 269.858 206.086C264.641 205.247 259.47 204.141 254.366 202.773C249.301 201.466 244.236 199.955 239.098 198.902C229.998 197.02 219.964 196.608 211.607 201.274C210.628 201.814 209.687 202.422 208.793 203.094L210.082 203.832C210.493 188.723 207.863 173.685 202.349 159.614C200.78 155.631 198.99 151.739 196.986 147.956L196.491 149.173C213.87 144.421 232.167 144.142 249.683 148.361C254.582 149.549 259.387 151.091 264.062 152.976C264.749 153.253 265.041 152.142 264.366 151.849L264.388 151.883Z" fill="#E63946"/>
<path d="M96.858 165.934C103.296 172.628 102.744 183.261 106.346 191.855C110.218 201.073 118.811 207.514 127.866 211.724C136.921 215.933 146.713 218.356 155.92 222.227C159.792 223.856 163.984 226.256 164.924 230.364C166.314 229.13 168.661 229.694 169.854 231.119C171.047 232.545 171.329 234.5 171.329 236.365C171.319 240.803 169.993 245.137 167.519 248.819C166.736 249.98 165.746 251.129 164.39 251.462C163.033 251.794 161.323 250.859 161.368 249.461C156.224 253.969 148.368 252.786 141.772 250.971C129.659 247.646 117.908 243.116 106.695 237.447C98.5744 233.339 90.6338 228.55 84.4322 221.878C78.2305 215.206 73.9647 207.475 70.4644 195.202" fill="white"/>
<path d="M96.5598 166.233C100.803 170.781 101.917 177.137 103.2 183.009C103.791 186.07 104.651 189.072 105.772 191.98C106.948 194.795 108.536 197.42 110.483 199.767C119.397 210.654 133.342 214.886 146.122 219.321C149.972 220.656 153.917 221.958 157.569 223.789C160.434 225.221 163.366 227.244 164.153 230.551C164.232 230.816 164.443 231.02 164.709 231.091C164.975 231.162 165.259 231.09 165.459 230.901C166.736 229.847 168.684 230.737 169.494 231.938C170.62 233.589 170.62 235.781 170.496 237.697C170.254 241.703 168.858 246.076 166.269 249.203C165.667 249.93 164.846 250.713 163.85 250.753C163.079 250.781 162.122 250.302 162.099 249.446C162.093 249.144 161.91 248.875 161.632 248.759C161.354 248.643 161.034 248.703 160.816 248.91C155.042 253.892 146.319 251.463 139.814 249.581C131.235 247.103 122.843 244.014 114.703 240.339C107.01 236.874 99.3511 233.014 92.5417 228.01C87.101 224.012 82.4215 219.069 78.7258 213.415C74.8429 207.338 72.189 200.557 70.9147 193.456C70.7177 192.408 70.5263 191.36 70.3519 190.306C70.245 189.607 69.0238 189.743 69.1082 190.475C70.7242 204.977 77.9682 218.261 89.2776 227.463C95.9858 232.969 103.758 237.043 111.586 240.728C119.885 244.608 128.458 247.87 137.236 250.488C141.119 251.654 145.042 252.793 149.088 253.204C152.673 253.565 156.483 253.3 159.696 251.514C160.473 251.074 161.202 250.557 161.874 249.97L160.591 249.44C160.636 251.694 163.253 252.759 165.155 251.97C167.44 251.023 168.847 248.33 169.843 246.205C171.012 243.721 171.738 241.051 171.987 238.316C172.207 235.888 172.195 233.042 170.704 230.991C169.213 228.94 166.359 228.173 164.35 229.813L165.656 230.163C164.969 227.255 162.786 225.125 160.327 223.598C157.445 221.806 154.136 220.656 150.973 219.495C143.714 216.847 136.246 214.723 129.172 211.561C123.308 208.941 117.686 205.532 113.184 200.9C110.978 198.668 109.123 196.114 107.68 193.327C106.323 190.489 105.305 187.5 104.647 184.423C103.082 177.87 102.036 170.713 97.1563 165.664C96.7737 165.27 96.1771 165.867 96.5542 166.273L96.5598 166.233Z" fill="#003566"/>
<path d="M133.044 305.215C131.363 304.759 129.566 305.183 128.266 306.342C126.796 307.672 125.866 309.498 125.655 311.47C125.399 313.715 125.33 315.976 125.446 318.232L125.548 325.614C125.581 328.392 125.61 331.187 125.75 333.965C125.75 334.292 126.015 334.557 126.341 334.557C126.668 334.557 126.932 334.292 126.932 333.965C127.118 328.33 127.011 322.633 126.96 316.975C126.96 314.49 126.735 311.808 127.737 309.47C128.536 307.593 130.601 305.655 132.802 306.089C133.364 306.19 133.606 305.373 133.044 305.221V305.215Z" fill="#6D7DB6"/>
<path d="M204.566 136.887C203.175 134.145 202.361 131.145 202.174 128.074C202.033 127.064 202.231 126.035 202.737 125.15C203.395 124.22 204.588 123.854 205.702 123.617C206.875 123.325 208.087 123.223 209.293 123.313C210.339 123.431 211.544 124.068 211.504 125.122C211.454 125.911 210.688 126.44 210.007 126.84L207.666 128.215C209.728 128.151 211.652 129.243 212.658 131.046C213.663 132.849 213.58 135.063 212.444 136.786C212.32 136.972 211.955 137.096 211.949 136.871" fill="white"/>
<path d="M204.915 136.669C203.986 134.65 203.345 132.51 203.013 130.313C202.759 128.532 202.242 125.805 204.183 124.824C205.137 124.401 206.154 124.142 207.194 124.058C208.128 123.939 209.248 123.844 210.115 124.289C210.981 124.734 210.812 125.416 210.087 125.934C209.209 126.565 208.207 127.061 207.273 127.625C207.004 127.787 206.875 128.109 206.957 128.412C207.04 128.716 207.313 128.928 207.627 128.932C209.44 128.883 211.135 129.827 212.051 131.394C212.497 132.207 212.702 133.129 212.641 134.054C212.604 134.697 212.442 135.327 212.163 135.908C212.073 136.088 211.78 136.37 212.006 136.364L212.439 136.545L212.383 136.472C211.966 135.948 211.313 136.539 211.386 137.035C211.446 137.283 211.618 137.489 211.851 137.591C212.084 137.694 212.351 137.682 212.574 137.559C213.137 137.311 213.401 136.59 213.615 136.055C214.393 134.101 214.134 131.886 212.927 130.165C211.72 128.443 209.727 127.448 207.627 127.518L207.982 128.825C208.916 128.261 209.906 127.771 210.796 127.134C211.549 126.718 212.059 125.966 212.169 125.111C212.225 123.145 209.918 122.547 208.353 122.559C207.213 122.582 206.079 122.743 204.977 123.038C204.065 123.23 203.218 123.653 202.517 124.266C201.015 125.731 201.392 128.177 201.718 130.036C202.129 132.51 202.952 134.897 204.155 137.097C204.431 137.593 205.134 137.153 204.909 136.658L204.915 136.669Z" fill="#003566"/>
<path d="M210.936 119.528C211.285 121.066 212.461 122.948 214.115 123.314C214.815 123.499 215.554 123.207 215.939 122.593C216.4 121.754 216.152 120.452 216.029 119.556L214.937 119.86C215.173 121.523 215.82 124.492 217.751 124.994C218.616 125.189 219.506 124.781 219.923 123.996C220.486 123.055 220.289 121.94 220.069 120.925C219.906 120.159 218.747 120.486 218.899 121.246C219.124 122.34 218.662 123.45 219.056 124.526C219.273 125.257 219.852 125.824 220.587 126.025C221.375 126.146 222.15 125.736 222.495 125.016C222.996 124.092 222.703 123.021 223.114 122.092L221.988 121.94C222.347 123.457 222.997 124.891 223.902 126.16C224.363 126.814 225.455 126.16 224.982 125.529C224.136 124.352 223.524 123.022 223.181 121.613C223.11 121.379 222.909 121.208 222.667 121.175C222.425 121.142 222.186 121.254 222.056 121.461C221.812 122.087 221.679 122.75 221.662 123.422C221.622 123.85 221.465 125.005 220.778 124.802C220.216 124.644 220.109 123.81 220.114 123.348C220.193 122.542 220.182 121.729 220.081 120.925L218.91 121.246C219.056 121.894 219.265 122.683 218.944 123.309C218.83 123.597 218.565 123.798 218.257 123.829C217.949 123.859 217.649 123.715 217.481 123.455C216.563 122.469 216.226 120.841 216.029 119.556C215.922 118.835 214.83 119.145 214.937 119.86C215.103 120.554 215.13 121.274 215.016 121.979C214.791 122.621 213.963 122.193 213.603 121.945C212.701 121.309 212.061 120.365 211.802 119.291C211.724 119.067 211.487 118.942 211.259 119.004C211.03 119.067 210.889 119.295 210.936 119.528Z" fill="#003566"/>
<path d="M74.5673 163.34C79.4769 161.221 85.0346 161.187 89.9701 163.244C90.5779 163.497 90.848 162.5 90.2402 162.252C85.0502 160.155 79.2284 160.281 74.1339 162.602C73.6331 162.827 74.0664 163.559 74.5673 163.34Z" fill="#6D7DB6"/>
<path d="M92.2494 164.59L92.497 164.365C92.5421 164.326 92.5752 164.275 92.5927 164.218C92.6239 164.164 92.6395 164.101 92.6377 164.038C92.6401 163.975 92.6245 163.912 92.5927 163.858C92.5765 163.799 92.5432 163.746 92.497 163.706L92.4013 163.632C92.33 163.59 92.248 163.568 92.165 163.57H92.0412C91.9636 163.589 91.8932 163.63 91.8386 163.689L91.6135 163.937C91.5719 163.977 91.541 164.028 91.5234 164.083C91.4958 164.137 91.4823 164.197 91.484 164.258C91.4936 164.374 91.5388 164.484 91.6135 164.573L91.7035 164.641C91.7739 164.681 91.8533 164.703 91.9342 164.703H92.0524C92.1273 164.685 92.1956 164.646 92.2494 164.59Z" fill="#6D7DB6"/>
<path d="M96.2337 148.693C99.9595 153.665 105.061 157.432 110.905 159.529C113.836 160.581 116.91 161.176 120.022 161.292C121.811 161.354 123.539 161.292 125.087 160.284C126.233 159.541 127.195 158.546 127.9 157.376C129.546 154.663 129.732 151.306 128.396 148.428C128.097 147.791 127.146 148.343 127.456 148.991C128.521 151.362 128.387 154.101 127.096 156.356C126.478 157.532 125.569 158.529 124.456 159.252C123.016 160.165 121.417 160.165 119.774 160.092C114.143 159.811 108.695 157.998 104.017 154.846C101.328 153.048 98.9503 150.823 96.9766 148.259C96.6333 147.813 95.851 148.259 96.2112 148.704L96.2337 148.693Z" fill="#6D7DB6"/>
<path d="M99.7058 152.076C100.557 151.757 101.4 151.409 102.233 151.034C103.068 150.689 103.879 150.286 104.658 149.828C104.887 149.694 104.963 149.4 104.83 149.171C104.696 148.942 104.403 148.866 104.174 148.999C103.386 149.366 102.632 149.816 101.844 150.188C101.056 150.56 100.274 150.904 99.4694 151.225C99.2348 151.291 99.0975 151.534 99.1627 151.769C99.228 152.004 99.4711 152.141 99.7058 152.076Z" fill="#6D7DB6"/>
<path d="M107.005 156.729C107.838 155.779 108.64 154.798 109.413 153.787C109.517 153.561 109.431 153.292 109.216 153.167C109.001 153.042 108.726 153.101 108.58 153.303C107.877 154.261 107.151 155.174 106.369 156.092C106.199 156.271 106.199 156.551 106.369 156.729C106.546 156.901 106.828 156.901 107.005 156.729Z" fill="#6D7DB6"/>
<path d="M115.126 155.186L114.704 157.277C114.563 157.987 114.372 158.702 114.293 159.424C114.301 159.665 114.483 159.866 114.722 159.898C114.962 159.93 115.189 159.784 115.261 159.553C115.357 159.215 115.396 158.855 115.464 158.505L115.649 157.496L116.026 155.44C116.079 155.196 115.937 154.952 115.7 154.876C115.455 154.818 115.208 154.962 115.137 155.203L115.126 155.186Z" fill="#6D7DB6"/>
<path d="M121.975 155.504C122.314 156.099 122.586 156.731 122.785 157.387C122.967 158.065 123.097 158.756 123.173 159.455C123.244 159.683 123.47 159.826 123.706 159.794C123.943 159.762 124.122 159.564 124.13 159.325C124.086 158.568 123.937 157.82 123.685 157.105C123.45 156.388 123.134 155.7 122.746 155.054C122.621 154.841 122.348 154.769 122.135 154.893C121.922 155.018 121.85 155.291 121.975 155.504Z" fill="#6D7DB6"/>
<path d="M125.835 151.596H125.998H126.077L126.364 151.652C126.576 151.702 126.785 151.766 126.989 151.844H127.05L127.202 151.912L127.484 152.058C127.68 152.165 127.868 152.285 128.047 152.419C128.203 152.51 128.397 152.511 128.555 152.421C128.712 152.331 128.81 152.163 128.811 151.981C128.812 151.8 128.716 151.631 128.559 151.54C127.754 151 126.814 150.699 125.846 150.672C125.605 150.675 125.41 150.87 125.407 151.111C125.416 151.349 125.608 151.54 125.846 151.545L125.835 151.596Z" fill="#6D7DB6"/>
<path d="M150.878 161.194C152.881 167.916 152.043 174.858 151.097 181.682C150.974 182.573 152.335 182.956 152.454 182.06C153.399 175.129 154.429 167.634 151.767 160.946C151.553 160.41 150.703 160.608 150.878 161.194Z" fill="#6D7DB6"/>
<path d="M150.715 184.755C150.791 184.887 150.897 184.999 151.024 185.082C151.09 185.125 151.162 185.158 151.238 185.178C151.319 185.2 151.402 185.213 151.486 185.217H151.598C151.682 185.211 151.765 185.196 151.846 185.172C151.926 185.15 152.002 185.116 152.071 185.071C152.139 185.026 152.202 184.973 152.257 184.913C152.355 184.811 152.411 184.677 152.414 184.535C152.411 184.394 152.355 184.259 152.257 184.158C152.158 184.056 152.022 183.999 151.88 184C151.739 184.003 151.604 184.06 151.503 184.158L151.446 184.214L151.553 184.13C151.507 184.161 151.458 184.189 151.407 184.214L151.531 184.158C151.486 184.176 151.438 184.189 151.39 184.197H151.525H151.362H151.497L151.278 184.163H151.413C151.37 184.158 151.328 184.147 151.289 184.13L151.401 184.18L151.323 184.135L151.216 184.09C151.159 184.073 151.098 184.073 151.041 184.09C150.946 184.099 150.856 184.141 150.788 184.209C150.737 184.265 150.698 184.333 150.675 184.406C150.643 184.519 150.657 184.641 150.715 184.744V184.755Z" fill="#6D7DB6"/>
<path d="M163.608 233.407C163.749 237.765 163.016 242.107 161.452 246.176C161.194 246.847 162.28 247.145 162.533 246.475C164.105 242.308 164.769 237.852 164.48 233.407C164.441 232.844 163.591 232.844 163.608 233.407Z" fill="#6D7DB6"/>
<path d="M79.7391 254.114C84.3505 252.02 88.1371 248.452 90.5048 243.971C90.8368 243.334 89.8632 242.765 89.5368 243.407C87.3056 247.757 83.6894 251.237 79.2607 253.297C78.698 253.556 79.1876 254.367 79.7391 254.114Z" fill="#6D7DB6"/>
<path d="M75.2031 315.603C75.5295 318.283 76.346 320.878 77.6117 323.261C77.7027 323.424 77.8756 323.524 78.0619 323.521L78.7485 323.43C78.9398 323.415 79.1069 323.295 79.1826 323.118C79.2584 322.942 79.2304 322.738 79.1099 322.588C78.9894 322.439 78.7961 322.368 78.6078 322.405L77.9212 322.501L78.484 322.737C77.2793 320.522 76.4914 318.104 76.1598 315.603C76.1483 315.338 75.9357 315.125 75.6701 315.113C75.401 315.116 75.1836 315.334 75.1805 315.603H75.2031Z" fill="#6D7DB6"/>
<path d="M78.7037 316.208C79.055 317.779 79.7192 319.262 80.6565 320.57C80.8148 320.812 81.1314 320.895 81.3881 320.761C81.6307 320.603 81.7134 320.286 81.5795 320.029C80.6613 318.816 80.0024 317.427 79.6436 315.949C79.5538 315.713 79.2993 315.583 79.0559 315.651C78.8125 315.718 78.66 315.959 78.7037 316.208Z" fill="#6D7DB6"/>
<path d="M510.221 498.977L511.656 498.312C511.873 498.154 511.936 497.857 511.801 497.624C511.666 497.391 511.377 497.299 511.132 497.41L509.748 498.165C509.64 498.228 509.562 498.331 509.53 498.451C509.498 498.572 509.516 498.7 509.579 498.808C509.639 498.913 509.738 498.99 509.855 499.022C509.978 499.048 510.107 499.033 510.221 498.977Z" fill="white"/>
<path d="M402.986 284.186C404.386 283.248 405.419 281.855 405.912 280.242C405.961 279.988 405.807 279.74 405.559 279.671C405.31 279.601 405.05 279.735 404.961 279.977C404.543 281.353 403.692 282.556 402.536 283.409C402.327 283.537 402.255 283.807 402.372 284.023C402.497 284.237 402.771 284.31 402.986 284.186Z" fill="white"/>
<path d="M216.468 445.855C217.573 444.622 219.012 443.738 220.61 443.308C220.871 443.218 221.016 442.941 220.944 442.675C220.871 442.409 220.605 442.245 220.335 442.3C218.57 442.792 216.985 443.784 215.771 445.157C215.585 445.352 215.585 445.66 215.771 445.855C215.863 445.949 215.988 446.002 216.119 446.002C216.251 446.002 216.376 445.949 216.468 445.855Z" fill="white"/>
<path d="M212.074 150.873C210.67 150.596 209.242 151.224 208.494 152.446C207.717 153.721 207.839 155.352 208.798 156.497C209.716 157.667 211.213 158.221 212.67 157.928C214.154 157.609 215.376 156.562 215.923 155.145C216.441 153.787 216.03 151.899 214.505 151.437C213.717 151.195 213.379 152.434 214.167 152.671C214.476 152.776 214.708 153.034 214.781 153.353C214.896 153.752 214.896 154.176 214.781 154.576C214.457 155.551 213.687 156.314 212.71 156.627C211.749 156.944 210.691 156.693 209.975 155.979C209.248 155.324 208.97 154.303 209.265 153.37C209.658 152.305 210.707 151.63 211.837 151.713C212.4 151.792 212.631 151.003 212.068 150.873H212.074Z" fill="white"/>
<path d="M294.609 190.282C293.273 190.319 292.124 191.239 291.795 192.536C291.401 193.959 291.89 195.48 293.039 196.407C294.26 197.43 295.828 197.943 297.417 197.838C298.275 197.803 299.074 197.391 299.6 196.711C300.061 196.041 300.287 195.236 300.242 194.423C300.197 192.817 299.235 190.761 297.428 190.654C296.865 190.62 296.595 191.516 297.135 191.747C297.596 191.913 298.005 192.196 298.323 192.569C298.644 193.005 298.851 193.515 298.925 194.051C299.011 194.578 298.957 195.119 298.767 195.618C298.538 196.136 298.043 196.486 297.479 196.531C295.571 196.779 292.695 195.483 292.864 193.234C292.937 192.288 293.584 191.206 294.614 191.121C294.857 191.121 295.053 190.924 295.053 190.682C295.053 190.439 294.857 190.242 294.614 190.242L294.609 190.282Z" fill="white"/>
<path d="M254.618 163.731C251.855 162.783 248.814 163.114 246.317 164.633C243.812 166.185 242.017 168.663 241.32 171.53C239.907 177.114 242.372 183.211 246.829 186.71C250.932 189.934 256.695 190.655 261.293 188.046C264.545 186.187 266.864 183.04 267.678 179.38C268.493 175.719 267.727 171.885 265.57 168.819C263.769 166.188 261.006 163.787 257.623 163.979C256.807 164.024 256.802 165.297 257.623 165.258C260.37 165.14 262.609 167.044 264.118 169.174C265.449 170.991 266.271 173.131 266.498 175.373C266.832 179.45 265.09 183.42 261.867 185.933C258.278 188.597 253.471 188.933 249.548 186.795C245.067 184.301 242.284 179.576 242.271 174.443C242.282 171.348 243.599 168.401 245.895 166.329C248.236 164.324 251.444 163.67 254.382 164.599C254.945 164.785 255.158 163.928 254.624 163.731H254.618Z" fill="white"/>
<path d="M279.114 487.588C269.114 488.467 262.383 497.697 257.937 505.806C252.872 515.024 249.833 526.154 253.891 536.336C255.731 540.962 259.029 545.172 263.604 547.307C268.011 549.364 273.278 549.127 276.79 545.482C278.363 543.909 279.306 541.814 279.44 539.593C279.514 537.598 278.574 534.522 275.974 535.085C274.82 535.339 273.931 536.285 273.267 537.209C272.525 538.279 271.875 539.41 271.325 540.59C265.664 552.27 269.245 566.336 279.801 573.876C280.78 574.582 281.806 575.218 282.873 575.781C283.712 576.226 284.455 574.953 283.616 574.502C277.53 571.281 273.021 565.711 271.134 559.083C269.246 552.454 270.142 545.341 273.616 539.39C274.179 538.443 274.741 537.362 275.715 536.753C276.84 536.043 277.589 536.939 277.853 538.004C278.349 539.993 277.645 542.101 276.446 543.695C273.633 547.426 268.748 547.995 264.628 546.237C260.374 544.422 257.256 540.681 255.416 536.516C251.387 527.399 253.604 517.092 257.853 508.499C259.884 504.233 262.438 500.237 265.456 496.604C268.269 493.324 271.753 490.405 275.946 489.098C276.976 488.781 278.036 488.568 279.108 488.461C279.671 488.41 279.671 487.526 279.108 487.576L279.114 487.588Z" fill="#6D7DB6"/>
<path d="M85.5802 70.8619C86.7079 77.1272 88.4574 83.2641 90.8027 89.1813C91.0559 89.8181 92.0914 89.5363 91.8325 88.8996C89.4648 82.9911 87.6725 76.8675 86.4806 70.614C86.3681 70.0505 85.4733 70.2759 85.5802 70.8619Z" fill="#6D7DB6"/>
<path d="M111.929 60.0848L111.873 82.0106C111.943 82.251 112.163 82.4163 112.413 82.4163C112.663 82.4163 112.884 82.251 112.954 82.0106L112.892 60.0848C112.865 59.8388 112.658 59.6523 112.411 59.6523C112.163 59.6523 111.956 59.8388 111.929 60.0848Z" fill="#6D7DB6"/>
<path d="M143.129 59.9754C141.392 68.8563 138.957 77.5858 135.846 86.0824C135.604 86.7473 136.662 87.0347 136.899 86.3754C139.983 77.8648 142.377 69.1191 144.057 60.2233C144.175 59.6148 143.252 59.3556 143.129 59.9641V59.9754Z" fill="#6D7DB6"/>
<path d="M172.679 74.6634C169.913 79.8605 167.758 85.3614 166.258 91.0556C166.204 91.2519 166.258 91.4623 166.401 91.6075C166.543 91.7527 166.753 91.8107 166.949 91.7596C167.146 91.7086 167.301 91.5562 167.355 91.3599C168.795 85.7463 170.872 80.3164 173.546 75.1762C173.85 74.6127 172.983 74.0886 172.674 74.6634H172.679Z" fill="#6D7DB6"/>
</svg>
