<svg width="279" height="184" viewBox="0 0 279 184" fill="none" xmlns="http://www.w3.org/2000/svg">
<path d="M137.796 127.909L80.3163 92.2706L117.849 93.4433" fill="black"/>
<path d="M137.357 128.655L131.63 125.101L117.869 116.573L101.32 106.31L86.9613 97.3959C84.64 95.96 82.2747 94.572 79.9892 93.0762L79.8935 93.0164C79.1915 92.5817 79.4468 91.3771 80.3323 91.421L84.0776 91.5366L93.02 91.8198L103.885 92.1589L113.234 92.45C114.754 92.4979 116.282 92.4979 117.797 92.5936H117.865C118.978 92.6295 118.982 94.3606 117.865 94.3247L114.12 94.209L105.177 93.9258L94.3123 93.5868L84.963 93.2956L81.8719 93.1999C81.3892 93.1999 80.8787 93.1999 80.4001 93.152H80.3323L80.767 91.5566L86.4986 95.1064L100.239 103.606L116.788 113.865L131.147 122.779C133.472 124.219 135.834 125.607 138.119 127.103L138.215 127.163C139.16 127.745 138.291 129.241 137.341 128.655H137.357Z" fill="black"/>
<path d="M4.19394 1.56978L181.443 43.5618C182.296 43.7647 182.957 44.4381 183.144 45.2943C183.331 46.1506 183.011 47.0383 182.321 47.5783L138.251 82.0079C137.63 82.4893 137.303 83.2572 137.385 84.0381L141.745 126.13C141.846 127.108 141.309 128.041 140.413 128.444C139.516 128.848 138.462 128.632 137.796 127.909L113.801 101.747C113.023 100.896 111.731 100.761 110.793 101.432L59.5078 138.183C58.9414 138.589 58.2205 138.714 57.5506 138.522C56.8807 138.33 56.3352 137.842 56.0697 137.198L1.57741 4.641C1.2643 3.85524 1.41161 2.96074 1.96014 2.31688C2.50868 1.67302 3.36841 1.38547 4.19394 1.56978Z" fill="#F59D31"/>
<path d="M138.458 94.4005L2.39902 1.88888C2.92548 1.534 3.57738 1.41811 4.19389 1.5698L181.443 43.5618C182.296 43.7647 182.957 44.4381 183.144 45.2943C183.331 46.1506 183.011 47.0383 182.321 47.5783L138.251 82.0079C137.63 82.4893 137.303 83.2572 137.385 84.0381L138.458 94.4005Z" fill="white"/>
<path d="M2.03607 2.20803L2.12781 2.1123C34.0725 21.7003 109.569 65.3556 137.625 82.7937C137.427 83.1771 137.344 83.609 137.385 84.0382L141.745 126.13C141.846 127.108 141.309 128.041 140.412 128.445C139.516 128.848 138.462 128.633 137.796 127.909L122.121 110.818C119.692 107.559 117.243 104.316 114.646 101.245C108.053 93.4951 100.307 86.8182 92.5933 80.1772L2.03607 2.20803Z" fill="#003566"/>
<path d="M121.375 111.256C118.328 107.172 115.237 103.12 111.802 99.3424C108.468 95.6689 104.886 92.2267 101.213 88.8963C93.4946 81.9042 85.4935 75.2233 77.6041 68.4308L53.2736 47.4746L28.8394 26.4308L4.50899 5.47469L1.42978 2.82227C1.09581 2.48242 1.09581 1.93762 1.42978 1.59777L1.52153 1.50603C1.79967 1.23086 2.22736 1.17536 2.56653 1.37042C10.2286 6.06899 17.9426 10.6758 25.6645 15.2707C35.2824 20.9824 44.9002 26.6741 54.5181 32.3459C64.7448 38.3767 74.9716 44.4048 85.1984 50.4302C94.7471 56.0621 104.282 61.7126 113.805 67.3818C121.219 71.8011 128.626 76.2325 135.973 80.7635C136.671 81.1943 137.365 81.621 138.059 82.0558C138.469 82.3056 138.606 82.8349 138.37 83.2524C138.265 83.5044 138.224 83.7784 138.251 84.0501C138.307 85.1629 136.576 85.1589 136.52 84.0501C136.499 83.4685 136.621 82.8906 136.875 82.3669L137.186 83.5635C130.15 79.176 123.038 74.9282 115.927 70.6763C106.638 65.1295 97.3317 59.6106 88.0063 54.1197C77.7982 48.0969 67.5887 42.0794 57.3779 36.0673C47.5579 30.2758 37.7447 24.4724 27.938 18.657C19.9608 13.9146 11.9836 9.16016 4.04631 4.32597L1.68906 2.8821L2.73407 2.74649L2.64232 2.84221V1.61771L27.1842 22.7573L51.6183 43.8012L76.1562 64.9407C84.1334 71.7931 92.1425 78.5738 100.008 85.5339C103.721 88.8205 107.367 92.1948 110.805 95.7766C114.266 99.4161 117.512 103.253 120.529 107.268C121.327 108.302 122.106 109.339 122.867 110.379C123.533 111.268 122.033 112.134 121.375 111.248V111.256Z" fill="black"/>
<path d="M89.2668 118.24L77.4166 126.732L61.2708 138.299C60.84 138.606 60.4132 138.933 59.9705 139.228C59.1692 139.757 58.1724 139.897 57.2564 139.609C56.3405 139.322 55.6028 138.637 55.248 137.745C55.0685 137.322 54.897 136.895 54.7215 136.472L51.1637 127.813L44.9813 112.768L37.04 93.4552L28.2093 71.9766L19.3626 50.4382L11.3614 30.9738L5.07539 15.6895L1.37398 6.6872C1.17055 6.19261 0.951187 5.70201 0.763718 5.20344C0.430191 4.27483 0.545013 3.24416 1.07475 2.41173C1.60448 1.5793 2.4895 1.03876 3.47197 0.947603C3.88783 0.929333 4.30392 0.977811 4.70445 1.09119C6.99789 1.62567 9.28735 2.17609 11.5768 2.71854L26.0514 6.14874L45.7551 10.8353L68.1591 16.1442L90.8941 21.5328L111.487 26.4148L127.561 30.2239L136.667 32.3858L137.864 32.665C138.949 32.9202 138.49 34.5914 137.405 34.3322L132.583 33.1915L119.748 30.1481L101.272 25.7607L79.5146 20.6034L56.8434 15.2348L35.5563 10.1892L18.1979 6.07694L6.93806 3.40857L4.38934 2.8023C4.26172 2.77438 4.13408 2.7345 3.99049 2.71056C2.71814 2.49119 1.99619 3.68378 2.43494 4.78464C3.11699 6.55956 3.8828 8.30258 4.60474 10.0616L9.69818 22.4541L16.9295 40.0399L25.3694 60.5652L34.264 82.2074L42.6959 102.717L49.8434 120.103L54.8491 132.304C55.5272 133.947 56.1135 135.667 56.8913 137.266C57.2901 138.1 58.3551 138.259 59.1728 137.665C59.6873 137.306 60.1978 136.935 60.7084 136.568L67.7403 131.526L85.0827 119.102L88.3893 116.729C89.2987 116.079 90.1602 117.578 89.2628 118.224L89.2668 118.24Z" fill="black"/>
<path d="M150.241 35.6006L156.523 37.0883L169.422 40.1476L180.019 42.6524C180.642 42.8 181.3 42.9037 181.906 43.1111C182.994 43.4838 183.794 44.4165 183.997 45.548C184.2 46.6795 183.773 47.8322 182.883 48.5596C181.575 49.6086 180.239 50.6256 178.919 51.6587L170.363 58.3396L159.729 66.6439L149.323 74.7766L141.577 80.8273L139.451 82.4866C138.813 82.9852 138.191 83.4119 138.255 84.3612C138.382 86.0963 138.614 87.8313 138.793 89.5663L140.03 101.512L141.426 114.994L142.427 124.67C142.487 125.256 142.558 125.843 142.61 126.429C142.85 129.257 139.376 130.904 137.317 128.97C136.891 128.571 136.52 128.108 136.121 127.681L133.217 124.518L124.546 115.061L116.17 105.936L113.741 103.283L113.234 102.733C112.732 102.145 111.861 102.046 111.24 102.505C108.356 104.46 105.564 106.57 102.732 108.6L99.9642 110.594C99.6969 110.77 99.3542 110.784 99.0733 110.631C98.7924 110.477 98.6191 110.182 98.6228 109.862C98.6264 109.541 98.8064 109.25 99.0907 109.103L107.423 103.12C108.404 102.414 109.369 101.684 110.37 101.006C111.655 100.156 113.364 100.346 114.431 101.456C114.555 101.584 114.67 101.72 114.79 101.855L120.629 108.237L129.683 118.113L136.974 126.058C137.445 126.573 137.912 127.099 138.39 127.606C138.834 128.153 139.614 128.289 140.217 127.925C140.736 127.61 141.004 127.005 140.887 126.409C140.708 124.387 140.488 122.373 140.261 120.354L138.977 108.065L137.601 94.7954L136.659 85.7293C136.607 85.2268 136.524 84.7202 136.508 84.2176C136.468 82.9453 137.202 82.0678 138.103 81.3498L143.396 77.2057L152.57 70.0541L163.339 61.6342L173.255 53.8883L180.091 48.5556L181.567 47.4029C181.816 47.2348 182.026 47.0143 182.181 46.7567C182.378 46.3624 182.383 45.8993 182.194 45.5012C182.004 45.1031 181.642 44.8144 181.212 44.7185C179.066 44.1561 176.892 43.6935 174.735 43.1829L161.891 40.1396L151.409 37.6547L149.782 37.2559C148.701 37.0006 149.16 35.3334 150.245 35.5886L150.241 35.6006Z" fill="black"/>
<path d="M135.459 124.052C130.767 117.921 125.534 112.224 119.823 107.028C113.745 101.488 107.255 96.3908 100.929 91.1338L90.0405 82.0877C89.4941 81.637 90.2758 80.8632 90.8183 81.3139C97.3197 86.6959 103.81 92.0858 110.291 97.4837C113.41 100.084 116.553 102.669 119.552 105.413C122.424 108.035 125.168 110.784 127.785 113.661C130.689 116.875 133.423 120.239 135.973 123.741C136.213 124.064 135.678 124.367 135.439 124.052H135.459Z" fill="#F59D31"/>
<path d="M278.61 48.1727C271.893 47.9732 265.173 47.9626 258.451 48.1408C257.985 48.1408 257.917 47.5704 258.232 47.343C260.705 45.5083 261.758 42.1379 260.996 39.1863C260.198 36.1311 257.406 34.1288 254.319 33.9214C252.616 33.7853 250.917 34.2387 249.509 35.2057C249.154 35.453 248.711 35.0462 248.799 34.6633C250.075 30.1242 250.626 25.1664 249.178 20.5955C248.021 16.9339 245.528 13.5835 241.998 11.9402C238.612 10.3687 234.599 10.7436 231.273 12.2792C227.742 13.9667 224.885 16.7993 223.168 20.3163C221.03 24.5203 220.312 29.3265 220.324 34.0012C220.314 34.2739 220.127 34.508 219.863 34.5785C219.599 34.649 219.321 34.5394 219.175 34.3083C218.454 32.871 217.591 31.5094 216.599 30.2439C215.666 29.1072 214.521 28.0023 213.109 27.4958C209.798 26.2992 206.859 28.9277 205.826 31.9231C205.072 34.1089 205.028 36.4462 204.996 38.7356C204.981 39.0456 204.747 39.3008 204.44 39.3419C204.132 39.3831 203.839 39.1984 203.744 38.9032C203.054 36.4302 199.244 35.7123 197.645 37.6866C197.17 38.2769 196.341 37.4354 196.811 36.849C199.021 34.1049 204.035 35.1818 204.972 38.5641L203.72 38.7356C203.795 34.6433 204.071 30.0086 207.601 27.3003C209.001 26.1927 210.81 25.7408 212.566 26.0599C214.254 26.371 215.713 27.4399 216.866 28.6724C218.209 30.1872 219.344 31.8747 220.24 33.6901L219.092 34.0012C219.092 25.4975 221.764 15.9767 229.789 11.7089C233.259 9.86215 237.455 9.14022 241.24 10.4126C245.141 11.7208 248.073 14.9556 249.644 18.6849C251.826 23.8422 251.276 29.6416 249.76 34.8986L249.054 34.3562C251.886 32.3898 255.906 32.5254 258.73 34.4439C261.646 36.4382 262.739 40.0718 261.849 43.4183C261.369 45.2979 260.242 46.9485 258.667 48.0809L258.447 47.2832C265.169 47.1981 271.889 47.2912 278.606 47.5624C278.775 47.5624 278.913 47.6999 278.913 47.8695C278.913 48.0392 278.775 48.1767 278.606 48.1767L278.61 48.1727Z" fill="#6D7DB6"/>
<path d="M160.248 183.322C155.134 182.427 149.91 182.363 144.776 183.135C144.401 183.191 144.002 182.736 144.377 182.421C146.2 180.826 146.439 177.954 145.219 175.924C143.899 173.734 141.115 173.343 138.957 174.496C137.725 175.116 136.821 176.236 136.476 177.571C136.328 178.173 135.407 177.918 135.546 177.312C136.839 171.795 135.519 165.11 130.561 161.756C128.355 160.242 125.683 159.562 123.022 159.838C120.342 160.157 118.06 161.716 116.461 163.826C114.586 166.327 113.525 169.334 112.54 172.266C112.465 172.508 112.241 172.673 111.988 172.673C111.734 172.673 111.51 172.508 111.435 172.266C110.256 167.815 107.35 164.018 103.362 161.716C102.218 161.066 100.882 160.44 99.5294 160.595C98.3966 160.723 97.4872 161.453 96.7733 162.302C96.0015 163.287 95.3469 164.358 94.8229 165.493C94.2374 166.654 93.7311 167.854 93.3072 169.083C92.335 171.945 91.8064 174.94 91.7397 177.962C91.733 178.202 91.5857 178.416 91.3634 178.509C91.1412 178.601 90.8855 178.554 90.7106 178.389C88.6086 176.123 85.8485 173.335 82.4502 174.308C81.8173 174.477 81.2371 174.802 80.763 175.253C80.3083 175.746 79.9978 176.355 79.8656 177.012C79.7376 177.724 79.4662 178.403 79.0679 179.007C78.5662 179.632 77.7944 179.978 76.9938 179.936C75.8828 179.875 74.777 179.742 73.6833 179.537L70.0457 179.063C69.4195 178.975 69.563 177.866 70.1972 177.946C72.3192 178.213 74.4531 178.576 76.579 178.744C77.4804 178.815 78.1066 178.596 78.4177 177.71C78.661 177.02 78.7608 176.295 79.0639 175.628C80.3961 172.713 84.2491 172.438 86.8297 173.666C88.6924 174.551 90.1642 176.059 91.5442 177.567L90.5152 177.994C90.5792 175.042 91.0695 172.114 91.971 169.302C92.8086 166.706 93.9653 164.002 95.6325 161.828C96.3548 160.809 97.3704 160.034 98.5442 159.606C99.8844 159.183 101.308 159.487 102.565 160.025C104.884 161.064 106.942 162.608 108.588 164.544C110.455 166.682 111.801 169.225 112.52 171.971H111.415C113.218 166.642 115.759 160.157 121.957 158.884C124.801 158.358 127.739 158.873 130.234 160.336C132.855 161.869 134.862 164.266 135.909 167.117C137.137 170.47 137.33 174.115 136.464 177.579L135.534 177.32C136.217 174.528 139.212 172.661 142.028 172.932C145.015 173.227 146.926 175.932 146.85 178.827C146.842 180.428 146.16 181.951 144.972 183.023L144.553 182.305C149.828 181.566 155.188 181.701 160.419 182.704C160.818 182.78 160.651 183.39 160.252 183.322H160.248Z" fill="#6D7DB6"/>
<path d="M146.898 135.694L144.76 132.061C144.692 131.913 144.748 131.738 144.888 131.657C145.029 131.575 145.208 131.614 145.303 131.746L147.413 135.391C147.484 135.532 147.434 135.705 147.298 135.785C147.162 135.865 146.986 135.826 146.898 135.694Z" fill="#6D7DB6"/>
<path d="M144.461 136.608L142.949 134.183C142.738 133.844 143.268 133.537 143.476 133.872L144.992 136.297C145.207 136.636 144.668 136.951 144.457 136.608H144.461Z" fill="#6D7DB6"/>
<path d="M186.561 58.0683L185.954 58.9777C185.91 59.0503 185.84 59.1042 185.759 59.1293C185.63 59.1665 185.491 59.1209 185.409 59.0143C185.327 58.9077 185.319 58.7619 185.388 58.6467L185.994 57.7373C186.086 57.5804 186.287 57.527 186.445 57.6176C186.599 57.7122 186.65 57.9115 186.561 58.0683Z" fill="#6D7DB6"/>
<path d="M182.939 56.1658C182.788 56.8084 182.451 57.3924 181.97 57.8449C181.838 57.976 181.624 57.9751 181.493 57.843C181.362 57.7108 181.363 57.4974 181.495 57.3663C181.602 57.2672 181.703 57.162 181.798 57.0512L181.826 57.0153V56.9954C181.826 56.9954 181.87 56.9355 181.886 56.9156C181.902 56.8957 181.97 56.792 182.006 56.7281C182.042 56.6643 182.078 56.6045 182.109 56.5447C182.141 56.4848 182.145 56.4769 182.157 56.441L182.181 56.3971C182.181 56.3612 182.181 56.3971 182.181 56.3971C182.239 56.2601 182.286 56.1188 182.321 55.9743C182.343 55.8912 182.398 55.8205 182.473 55.7785C182.548 55.7364 182.637 55.7265 182.72 55.7509C182.89 55.8012 182.989 55.9782 182.943 56.1498L182.939 56.1658Z" fill="#6D7DB6"/>
</svg>
